<svg width="60" height="30" viewBox="0 0 60 30" fill="none" xmlns="http://www.w3.org/2000/svg">
<g clip-path="url(#clip0_525_5914)">
<path d="M0 29.5H20.6489V14.8069H0V29.5ZM7.30449 21.0032L9.25125 22.9679L13.7604 18.4172L15.208 19.8781L9.25125 25.8897L5.85691 22.4641L7.30449 21.0032ZM6.08985 8.29155C6.08985 5.94065 7.98669 4.02635 10.3328 4.02635C12.6622 4.02635 14.5591 5.94065 14.5591 8.29155V12.7079H18.0532V8.29155C18.0366 3.99276 14.5757 0.5 10.3328 0.5C6.07321 0.5 2.61231 3.99276 2.61231 8.29155V12.7079H6.10649V8.29155H6.08985ZM37.5707 13.5307C37.5707 11.4149 36.3394 10.2058 34.3927 9.467L32.5957 8.69456C31.1647 8.174 30.1664 7.82137 30.1664 6.93138C30.1664 6.05819 30.9151 5.57122 32.03 5.57122C33.4775 5.57122 34.4093 6.00782 35.4409 6.76346L37.1381 4.63086C35.7904 3.35466 34.01 2.66618 32.213 2.66618C29.0183 2.66618 26.7887 4.63086 26.7887 7.1161C26.7887 9.29907 28.2862 10.5753 29.9501 11.1966L31.8636 12.0194C33.2779 12.6071 34.1597 12.8926 34.1597 13.9505C34.1597 14.7061 33.4942 15.2603 32.0799 15.2603C30.6489 15.2603 29.2679 14.6222 28.1531 13.6986L26.223 16.0159C27.8037 17.4433 29.8503 18.1653 31.8469 18.1653C35.5075 18.1653 37.5707 15.9991 37.5707 13.5307ZM45.7404 9.467L43.9434 8.69456C42.5125 8.174 41.5141 7.82137 41.5141 6.93138C41.5141 6.05819 42.2629 5.57122 43.3777 5.57122C44.8253 5.57122 45.7571 6.00782 46.7887 6.76346L48.4859 4.63086C47.1381 3.35466 45.3577 2.66618 43.5607 2.66618C40.3661 2.66618 38.1364 4.63086 38.1364 7.1161C38.1364 9.29907 39.6339 10.5753 41.2978 11.1966L43.2113 12.0194C44.6256 12.6071 45.5075 12.8926 45.5075 13.9505C45.5075 14.7061 44.8419 15.2603 43.4276 15.2603C41.9967 15.2603 40.6156 14.6222 39.5008 13.6986L37.5707 16.0159C39.1514 17.4433 41.198 18.1653 43.1947 18.1653C46.8719 18.1653 48.9351 16.0159 48.9351 13.5307C48.9185 11.4149 47.7038 10.2058 45.7404 9.467Z" fill="#ECFFC2"/>
<path d="M53.5275 15.0422V2.93506H50.1997V17.8801H60.1165V15.0422H53.5275Z" fill="#ECFFC2"/>
<path d="M29.3675 23.186L28.469 22.7998C27.9199 22.5647 27.3209 22.3464 27.3209 21.7251C27.3209 21.1374 27.8201 20.7848 28.5688 20.7848C29.2344 20.7848 29.7169 21.0198 30.1495 21.3893L30.5821 20.8519C30.1162 20.3817 29.4174 20.0459 28.6021 20.0459C27.3875 20.0459 26.5056 20.768 26.5056 21.7587C26.5056 22.6991 27.2543 23.1692 27.8866 23.4211L28.8018 23.8241C29.4507 24.1096 29.9499 24.3111 29.9499 24.9996C29.9499 25.6041 29.434 26.0239 28.5522 26.0239C27.8201 26.0239 27.1545 25.7048 26.672 25.2179L26.1895 25.7888C26.7718 26.3765 27.5705 26.746 28.5189 26.746C29.9332 26.746 30.7818 25.9231 30.7818 24.8988C30.7818 23.9417 30.1495 23.5051 29.3675 23.186Z" fill="#ECFFC2"/>
<path d="M33.328 23.5892H35.9902V22.8839H33.328V20.8521H36.4728V20.1636H32.5127V26.6285H36.5726V25.9233H33.328V23.5892Z" fill="#ECFFC2"/>
<path d="M40.7487 26.0241C39.5174 26.0241 38.7187 24.9998 38.7187 23.3709C38.7187 21.7589 39.5174 20.7514 40.7487 20.7514C41.2811 20.7514 41.7137 20.9864 42.0299 21.3391L42.4957 20.8185C42.1297 20.3987 41.514 20.0293 40.7487 20.0293C39.0848 20.0293 37.8701 21.3055 37.8701 23.3877C37.8701 25.5035 39.0848 26.7461 40.6655 26.7461C41.514 26.7461 42.1463 26.3935 42.6455 25.8058L42.1796 25.302C41.7969 25.7722 41.3477 26.0241 40.7487 26.0241ZM47.4042 24.2105C47.4042 25.5539 46.8219 26.0409 46.0398 26.0409C45.2744 26.0409 44.6921 25.5539 44.6921 24.2105V20.1636H43.8768V24.1937C43.8768 26.0409 44.7919 26.7629 46.0398 26.7629C47.2878 26.7629 48.1863 26.0577 48.1863 24.1937V20.1636H47.3876V24.2105H47.4042ZM54.1763 21.9772C54.1763 20.6338 53.2445 20.1636 51.9467 20.1636H49.95V26.6286H50.7653V23.8915H51.9134L53.4608 26.6286H54.3926L52.762 23.8075C53.5939 23.5892 54.1763 22.9847 54.1763 21.9772ZM51.8135 23.2198H50.7487V20.8185H51.8135C52.8119 20.8185 53.361 21.1208 53.361 21.9772C53.361 22.8168 52.8119 23.2198 51.8135 23.2198Z" fill="#ECFFC2"/>
<path d="M56.7553 23.5892H59.4175V22.8839H56.7553V20.8521H59.9V20.1636H55.9233V26.6285H59.9999V25.9233H56.7553V23.5892Z" fill="#ECFFC2"/>
</g>
<defs>
<clipPath id="clip0_525_5914">
<rect width="60" height="29" fill="white" transform="translate(0 0.5)"/>
</clipPath>
</defs>
</svg>
