<svg width="67" height="24" viewBox="0 0 67 24" fill="none" xmlns="http://www.w3.org/2000/svg">
<g clip-path="url(#clip0_525_5922)">
<path fill-rule="evenodd" clip-rule="evenodd" d="M48.078 6.14791C49.5953 6.14791 50.8253 4.91977 50.8253 3.40531C50.8253 1.88997 49.5953 0.660645 48.078 0.660645C46.5623 0.660645 45.333 1.88997 45.333 3.40531C45.333 4.91977 46.5623 6.14791 48.078 6.14791ZM27.0373 7.62906C26.9133 7.94015 26.0211 10.4581 23.8632 13.0677V1.90943L18.1136 3.04468V23.2702H23.8632V17.0184C25.5285 19.5136 26.3508 23.2702 26.3508 23.2702H33.2376C32.5564 20.4409 29.5765 15.2241 29.5765 15.2241C32.2509 11.8366 33.4256 8.22706 33.6125 7.62906H27.0373ZM42.1527 7.41793C37.0029 7.58305 34.3887 9.89131 34.3887 14.4798V23.2702H40.007V16.1019C40.007 13.3543 40.3671 12.1766 43.6306 12.0642V7.49843C43.0813 7.38195 42.1527 7.41793 42.1527 7.41793ZM8.47093 9.85622C7.76669 9.80993 6.13626 9.70466 6.13626 8.23826C6.13626 6.46873 8.48362 6.46873 9.36406 6.46873C10.9121 6.46873 12.9171 6.92579 14.3489 7.35364C14.3489 7.35364 15.1476 7.63495 15.8273 7.92304L15.8905 7.94015V3.09393L15.8037 3.06827C14.114 2.47764 12.1491 1.90943 8.50634 1.90943C2.22546 1.90943 0 5.56495 0 8.69649C0 10.5017 0.774485 14.7502 7.96769 15.2403C8.57748 15.2777 10.1958 15.3709 10.1958 16.8863C10.1958 18.1374 8.87086 18.8752 6.64244 18.8752C4.20034 18.8752 1.83143 18.253 0.392555 17.663V22.6542C2.54659 23.2183 4.97482 23.5002 7.8207 23.5002C13.962 23.5002 16.7125 20.0417 16.7125 16.6138C16.7125 12.7271 13.6346 10.2018 8.47093 9.85622ZM45.2929 23.2702H50.8657V7.64675H45.2929V23.2702ZM61.359 2.9055V23.2702H66.9327V1.90943L61.359 2.9055ZM53.2263 2.9055L58.7947 1.90943V23.2702H53.2263V2.9055Z" fill="url(#paint0_linear_525_5922)"/>
</g>
<defs>
<linearGradient id="paint0_linear_525_5922" x1="18.1013" y1="0.660645" x2="23.1213" y2="28.8337" gradientUnits="userSpaceOnUse">
<stop stop-color="#FFB9F5"/>
<stop offset="1" stop-color="#EDBCFF"/>
</linearGradient>
<clipPath id="clip0_525_5922">
<rect width="67" height="23" fill="white" transform="translate(0 0.5)"/>
</clipPath>
</defs>
</svg>
