<svg width="207" height="72" viewBox="0 0 207 72" fill="none" xmlns="http://www.w3.org/2000/svg">
<g clip-path="url(#clip0_525_5882)">
<rect width="72" height="72" rx="28.8" fill="#FC485A"/>
<path d="M44.5813 22.9971L36.0001 12L27.4189 22.9971L21.1299 19.716C18.0545 32.0236 15.253 37.4869 10.0801 46.9974C20.836 49.0632 22.3054 47.2404 32.4736 55.2L29.8874 38.4302C26.8464 38.0442 23.7615 38.5757 21.7764 39.5846L28.5944 26.8857L36.0001 32.1976L43.4058 26.8857L50.2237 39.5846C48.2387 38.5757 45.1538 38.0442 42.1127 38.4302L39.5266 55.2C49.6948 47.2404 51.1641 49.0632 61.9201 46.9974C56.7472 37.4869 53.9457 32.0236 50.8703 19.716L44.5813 22.9971Z" fill="white"/>
</g>
<path d="M95.0101 32.5V10.523H103.454C105.396 10.523 107.046 11.1105 108.405 12.2855C109.774 13.4502 110.458 14.8397 110.458 16.454C110.458 17.394 110.188 18.288 109.646 19.136C109.115 19.9738 108.44 20.5562 107.623 20.8832C108.747 21.1488 109.661 21.7669 110.366 22.7376C111.071 23.7082 111.424 24.8474 111.424 26.1552C111.424 27.9432 110.734 29.4502 109.355 30.6762C107.976 31.8921 106.325 32.5 104.405 32.5H95.0101ZM100.343 19.1667H103.209C103.751 19.1667 104.205 18.993 104.573 18.6456C104.941 18.2982 105.125 17.8742 105.125 17.3736C105.125 16.8934 104.936 16.4796 104.558 16.1322C104.19 15.7848 103.741 15.6111 103.209 15.6111H100.343V19.1667ZM100.343 27.4119H103.93C104.522 27.4119 105.023 27.2075 105.431 26.7989C105.85 26.3902 106.06 25.8946 106.06 25.3123C106.06 24.7299 105.856 24.2344 105.447 23.8257C105.048 23.417 104.563 23.2127 103.991 23.2127H100.343V27.4119ZM126.464 10.2165C128.058 10.2165 129.549 10.5026 130.939 11.0747C132.339 11.6469 133.534 12.4336 134.525 13.4349C135.516 14.426 136.298 15.6214 136.87 17.0211C137.442 18.4208 137.728 19.9176 137.728 21.5115C137.728 23.1054 137.442 24.6022 136.87 26.0019C136.298 27.4017 135.516 28.6022 134.525 29.6035C133.534 30.5945 132.339 31.3761 130.939 31.9483C129.549 32.5204 128.058 32.8065 126.464 32.8065C124.349 32.8065 122.428 32.3212 120.701 31.3506C118.985 30.3697 117.636 29.016 116.655 27.2893C115.675 25.5626 115.184 23.6367 115.184 21.5115C115.184 19.3864 115.675 17.4604 116.655 15.7337C117.636 14.007 118.985 12.6584 120.701 11.6878C122.428 10.7069 124.349 10.2165 126.464 10.2165ZM130.617 17.1437C129.514 15.9789 128.129 15.3966 126.464 15.3966C124.798 15.3966 123.414 15.9789 122.311 17.1437C121.207 18.3084 120.655 19.7644 120.655 21.5115C120.655 23.2689 121.207 24.7299 122.311 25.8946C123.414 27.0594 124.798 27.6418 126.464 27.6418C128.129 27.6418 129.514 27.0594 130.617 25.8946C131.721 24.7299 132.272 23.2689 132.272 21.5115C132.272 19.7644 131.721 18.3084 130.617 17.1437ZM153.029 10.2165C154.623 10.2165 156.114 10.5026 157.504 11.0747C158.904 11.6469 160.099 12.4336 161.09 13.4349C162.081 14.426 162.863 15.6214 163.435 17.0211C164.007 18.4208 164.293 19.9176 164.293 21.5115C164.293 23.1054 164.007 24.6022 163.435 26.0019C162.863 27.4017 162.081 28.6022 161.09 29.6035C160.099 30.5945 158.904 31.3761 157.504 31.9483C156.114 32.5204 154.623 32.8065 153.029 32.8065C150.914 32.8065 148.993 32.3212 147.266 31.3506C145.55 30.3697 144.201 29.016 143.22 27.2893C142.239 25.5626 141.749 23.6367 141.749 21.5115C141.749 19.3864 142.239 17.4604 143.22 15.7337C144.201 14.007 145.55 12.6584 147.266 11.6878C148.993 10.7069 150.914 10.2165 153.029 10.2165ZM157.182 17.1437C156.078 15.9789 154.694 15.3966 153.029 15.3966C151.363 15.3966 149.979 15.9789 148.875 17.1437C147.772 18.3084 147.22 19.7644 147.22 21.5115C147.22 23.2689 147.772 24.7299 148.875 25.8946C149.979 27.0594 151.363 27.6418 153.029 27.6418C154.694 27.6418 156.078 27.0594 157.182 25.8946C158.285 24.7299 158.837 23.2689 158.837 21.5115C158.837 19.7644 158.285 18.3084 157.182 17.1437ZM176.13 10.2165C177.56 10.2165 179.062 10.5537 180.636 11.228C182.209 11.8921 183.425 12.7248 184.283 13.7261L181.249 17.91C180.39 17.1233 179.461 16.5051 178.459 16.0556C177.468 15.5958 176.544 15.3659 175.686 15.3659C175.052 15.3659 174.546 15.4834 174.168 15.7184C173.8 15.9432 173.617 16.2548 173.617 16.6533C173.617 17.0211 173.77 17.3429 174.076 17.6188C174.393 17.8844 174.807 18.099 175.318 18.2625C175.829 18.4259 176.411 18.6099 177.065 18.8142C177.719 19.0083 178.383 19.2024 179.057 19.3966C179.742 19.5805 180.411 19.8512 181.065 20.2088C181.719 20.5664 182.301 20.9751 182.812 21.4349C183.323 21.8947 183.731 22.5026 184.038 23.2586C184.355 24.0045 184.513 24.8576 184.513 25.818C184.513 26.6967 184.324 27.5498 183.946 28.3774C183.578 29.205 183.057 29.9508 182.383 30.6149C181.708 31.2791 180.835 31.8103 179.762 32.2088C178.7 32.6073 177.53 32.8065 176.253 32.8065C174.536 32.8065 172.779 32.3876 170.981 31.5498C169.182 30.7018 167.823 29.6494 166.904 28.3927L170.291 24.5307C171.21 25.5422 172.135 26.3187 173.065 26.8602C173.995 27.4017 175.057 27.6724 176.253 27.6724C177.111 27.6724 177.795 27.5141 178.306 27.1973C178.817 26.8806 179.072 26.4413 179.072 25.8793C179.072 25.5013 178.914 25.1794 178.597 24.9138C178.291 24.6379 177.887 24.4234 177.387 24.2701C176.886 24.1169 176.309 23.9483 175.655 23.7644C175.011 23.5805 174.352 23.4017 173.678 23.228C173.004 23.0543 172.339 22.804 171.686 22.477C171.042 22.1399 170.47 21.7516 169.969 21.3123C169.468 20.8729 169.06 20.2906 168.743 19.5652C168.436 18.8295 168.283 17.9917 168.283 17.0517C168.283 15.1003 169.019 13.4758 170.49 12.1782C171.961 10.8704 173.841 10.2165 176.13 10.2165ZM205.224 10.523V15.6111H199.047V32.5H193.699V15.6111H187.522V10.523H205.224Z" fill="#FC485A"/>
<path d="M94.7845 59.5V41.0393H100.217L105.251 52.9602L110.606 41.0393H115.163V59.5H110.709V49.6904L106.525 59.5H103.307L99.2645 49.6904V59.5H94.7845ZM131.421 59.5L130.417 56.8094H123.8L122.77 59.5H118.045L125.345 41.0393H128.911L136.236 59.5H131.421ZM125.242 53.0117H128.988L127.121 48.0554L125.242 53.0117ZM154.412 59.5H149.005L145.104 52.7028H143.598V59.5H139.118V41.0393H146.366C147.396 41.0393 148.365 41.3011 149.275 41.8246C150.185 42.3396 150.914 43.0476 151.464 43.9488C152.021 44.8499 152.3 45.824 152.3 46.8711C152.3 48.0039 152.069 49.0038 151.605 49.8706C151.15 50.7288 150.502 51.4068 149.661 51.9046L154.412 59.5ZM143.598 45.3391V48.8793H145.889C146.413 48.8793 146.859 48.7077 147.228 48.3644C147.606 48.0125 147.795 47.592 147.795 47.1028C147.795 46.605 147.61 46.1888 147.241 45.854C146.872 45.5107 146.421 45.3391 145.889 45.3391H143.598ZM173.798 59.5H168.017L161.503 50.8747V59.5H157.023V41.0393H161.503V48.6347L167.593 41.0393H173.218L166.125 49.7161L173.798 59.5ZM175.985 41.0393H187.584V45.3134H180.465V47.9524H186.824V52.2264H180.465V55.226H187.584V59.5H175.985V41.0393ZM205.399 41.0393V45.3134H200.211V59.5H195.718V45.3134H190.53V41.0393H205.399Z" fill="white"/>
<defs>
<clipPath id="clip0_525_5882">
<rect width="72" height="72" fill="white"/>
</clipPath>
</defs>
</svg>
