<svg width="172" height="60" viewBox="0 0 172 60" fill="none" xmlns="http://www.w3.org/2000/svg">
<g clip-path="url(#clip0_525_9774)">
<rect y="0.00012207" width="60" height="60" rx="24" fill="#212326"/>
<path d="M37.1514 19.1643L30.0004 10.0001L22.8494 19.1643L17.6086 16.4301C15.0457 26.6865 12.7111 31.2392 8.40039 39.1646C17.3637 40.8861 18.5882 39.3671 27.0616 46.0001L24.9065 32.0253C22.3723 31.7036 19.8015 32.1466 18.1473 32.9873L23.829 22.4049L30.0004 26.8314L36.1718 22.4049L41.8534 32.9873C40.1992 32.1466 37.6285 31.7036 35.0943 32.0253L32.9391 46.0001C41.4126 39.3671 42.6371 40.8861 51.6004 39.1646C47.2896 31.2392 44.9551 26.6865 42.3922 16.4301L37.1514 19.1643Z" fill="#FC485A"/>
</g>
<path d="M79.175 26V7.68585H86.212C87.8297 7.68585 89.2048 8.17542 90.3371 9.15456C91.4781 10.1252 92.0485 11.2831 92.0485 12.6284C92.0485 13.4117 91.8229 14.1567 91.3716 14.8634C90.9289 15.5615 90.3669 16.0468 89.6858 16.3193C90.6224 16.5407 91.3844 17.0558 91.9719 17.8646C92.5594 18.6735 92.8531 19.6228 92.8531 20.7127C92.8531 22.2026 92.2784 23.4585 91.129 24.4802C89.9795 25.4934 88.6045 26 87.0038 26H79.175ZM83.6194 14.8889H86.0077C86.4589 14.8889 86.8378 14.7442 87.1443 14.4547C87.4508 14.1652 87.6041 13.8119 87.6041 13.3947C87.6041 12.9945 87.4466 12.6497 87.1315 12.3602C86.825 12.0707 86.4504 11.9259 86.0077 11.9259H83.6194V14.8889ZM83.6194 21.7599H86.6079C87.1017 21.7599 87.5189 21.5896 87.8595 21.249C88.2086 20.9085 88.3831 20.4955 88.3831 20.0102C88.3831 19.5249 88.2128 19.112 87.8723 18.7714C87.5402 18.4308 87.1358 18.2605 86.659 18.2605H83.6194V21.7599ZM105.386 7.43042C106.715 7.43042 107.958 7.66882 109.116 8.14562C110.282 8.62242 111.278 9.27801 112.104 10.1124C112.93 10.9383 113.581 11.9345 114.058 13.1009C114.535 14.2674 114.773 15.5147 114.773 16.8429C114.773 18.1711 114.535 19.4185 114.058 20.5849C113.581 21.7514 112.93 22.7518 112.104 23.5862C111.278 24.4121 110.282 25.0634 109.116 25.5402C107.958 26.017 106.715 26.2554 105.386 26.2554C103.624 26.2554 102.023 25.851 100.584 25.0421C99.154 24.2248 98.0301 23.0966 97.2127 21.6577C96.3954 20.2188 95.9867 18.6139 95.9867 16.8429C95.9867 15.072 96.3954 13.467 97.2127 12.0281C98.0301 10.5892 99.154 9.46533 100.584 8.65647C102.023 7.83911 103.624 7.43042 105.386 7.43042ZM108.847 13.2031C107.928 12.2325 106.774 11.7471 105.386 11.7471C103.999 11.7471 102.845 12.2325 101.925 13.2031C101.006 14.1737 100.546 15.387 100.546 16.8429C100.546 18.3074 101.006 19.5249 101.925 20.4955C102.845 21.4662 103.999 21.9515 105.386 21.9515C106.774 21.9515 107.928 21.4662 108.847 20.4955C109.767 19.5249 110.227 18.3074 110.227 16.8429C110.227 15.387 109.767 14.1737 108.847 13.2031ZM127.524 7.43042C128.852 7.43042 130.095 7.66882 131.253 8.14562C132.42 8.62242 133.416 9.27801 134.242 10.1124C135.067 10.9383 135.719 11.9345 136.196 13.1009C136.672 14.2674 136.911 15.5147 136.911 16.8429C136.911 18.1711 136.672 19.4185 136.196 20.5849C135.719 21.7514 135.067 22.7518 134.242 23.5862C133.416 24.4121 132.42 25.0634 131.253 25.5402C130.095 26.017 128.852 26.2554 127.524 26.2554C125.761 26.2554 124.161 25.851 122.722 25.0421C121.291 24.2248 120.168 23.0966 119.35 21.6577C118.533 20.2188 118.124 18.6139 118.124 16.8429C118.124 15.072 118.533 13.467 119.35 12.0281C120.168 10.5892 121.291 9.46533 122.722 8.65647C124.161 7.83911 125.761 7.43042 127.524 7.43042ZM130.985 13.2031C130.065 12.2325 128.912 11.7471 127.524 11.7471C126.136 11.7471 124.982 12.2325 124.063 13.2031C123.143 14.1737 122.683 15.387 122.683 16.8429C122.683 18.3074 123.143 19.5249 124.063 20.4955C124.982 21.4662 126.136 21.9515 127.524 21.9515C128.912 21.9515 130.065 21.4662 130.985 20.4955C131.904 19.5249 132.364 18.3074 132.364 16.8429C132.364 15.387 131.904 14.1737 130.985 13.2031ZM146.775 7.43042C147.967 7.43042 149.218 7.71139 150.53 8.27333C151.841 8.82676 152.854 9.52067 153.569 10.3551L151.041 13.8417C150.325 13.1861 149.551 12.6709 148.716 12.2963C147.89 11.9132 147.12 11.7216 146.405 11.7216C145.877 11.7216 145.455 11.8195 145.14 12.0153C144.834 12.2027 144.68 12.4623 144.68 12.7944C144.68 13.1009 144.808 13.3691 145.064 13.599C145.327 13.8204 145.672 13.9992 146.098 14.1354C146.524 14.2716 147.009 14.4249 147.554 14.5952C148.099 14.7569 148.652 14.9187 149.214 15.0805C149.785 15.2337 150.342 15.4594 150.887 15.7574C151.432 16.0554 151.917 16.3959 152.343 16.7791C152.769 17.1622 153.109 17.6688 153.365 18.2989C153.629 18.9204 153.761 19.6313 153.761 20.4317C153.761 21.1639 153.603 21.8748 153.288 22.5645C152.982 23.2542 152.548 23.8757 151.986 24.4291C151.424 24.9825 150.696 25.4253 149.802 25.7573C148.916 26.0894 147.941 26.2554 146.877 26.2554C145.447 26.2554 143.982 25.9063 142.484 25.2082C140.985 24.5015 139.853 23.6245 139.087 22.5773L141.909 19.3589C142.675 20.2018 143.446 20.8489 144.221 21.3001C144.995 21.7514 145.881 21.977 146.877 21.977C147.592 21.977 148.163 21.845 148.588 21.5811C149.014 21.3172 149.227 20.951 149.227 20.4828C149.227 20.1677 149.095 19.8995 148.831 19.6782C148.576 19.4483 148.239 19.2695 147.822 19.1418C147.405 19.0141 146.924 18.8736 146.379 18.7203C145.843 18.5671 145.293 18.4181 144.731 18.2733C144.17 18.1286 143.616 17.92 143.071 17.6475C142.535 17.3666 142.058 17.043 141.641 16.6769C141.224 16.3108 140.883 15.8255 140.619 15.221C140.364 14.6079 140.236 13.9098 140.236 13.1265C140.236 11.5002 140.849 10.1465 142.075 9.06516C143.301 7.97533 144.868 7.43042 146.775 7.43042ZM171.02 7.68585V11.9259H165.873V26H161.415V11.9259H156.269V7.68585H171.02Z" fill="#FC485A"/>
<path d="M78.987 49V33.6161H83.5142L87.7088 43.5502L92.1716 33.6161H95.9693V49H92.2574V40.8253L88.7709 49H86.0889L82.7203 40.8253V49H78.987ZM109.517 49L108.681 46.7579H103.166L102.308 49H98.3711L104.454 33.6161H107.425L113.53 49H109.517ZM104.368 43.5931H107.49L105.934 39.4628L104.368 43.5931ZM128.676 49H124.171L120.92 43.3356H119.665V49H115.931V33.6161H121.971C122.83 33.6161 123.638 33.8343 124.396 34.2705C125.154 34.6996 125.762 35.2897 126.22 36.0406C126.684 36.7916 126.917 37.6033 126.917 38.4759C126.917 39.4199 126.724 40.2531 126.338 40.9755C125.959 41.6907 125.419 42.2557 124.718 42.6705L128.676 49ZM119.665 37.1993V40.1494H121.574C122.011 40.1494 122.383 40.0064 122.69 39.7203C123.005 39.4271 123.162 39.0766 123.162 38.669C123.162 38.2542 123.008 37.9073 122.701 37.6284C122.393 37.3423 122.018 37.1993 121.574 37.1993H119.665ZM144.831 49H140.014L134.586 41.8123V49H130.853V33.6161H134.586V39.9456L139.66 33.6161H144.349L138.437 40.8468L144.831 49ZM146.654 33.6161H156.32V37.1778H150.387V39.377H155.687V42.9387H150.387V45.4383H156.32V49H146.654V33.6161ZM171.166 33.6161V37.1778H166.842V49H163.098V37.1778H158.775V33.6161H171.166Z" fill="#212326"/>
<defs>
<clipPath id="clip0_525_9774">
<rect width="60" height="60" fill="white"/>
</clipPath>
</defs>
</svg>
