<svg width="42" height="42" viewBox="0 0 42 42" fill="none" xmlns="http://www.w3.org/2000/svg">
<g clip-path="url(#clip0_183_5850)">
<path d="M4.60533 26.5882L3.18862 27.1391C1.06355 28.0442 -0.0383348 28.9887 0.00101836 29.8151C0.119078 31.0351 1.49644 31.9402 4.01504 32.6092C7.28134 33.475 10.587 33.6717 14.0107 33.1601V29.7364L11.2954 30.7596C8.46194 31.7434 7.00587 30.917 7.00587 30.917C6.57299 30.6416 6.37622 29.9725 7.55682 29.5397L9.05223 28.9887L14.0107 27.2178V23.2432L12.7514 23.676L4.60533 26.5882Z" fill="#51535A"/>
<path d="M25.3053 12.7752V22.9677C27.4304 23.9909 29.3193 24.0696 30.736 23.007C32.1921 21.9839 32.9792 20.213 32.9792 17.537C32.9792 14.7429 32.4282 12.6178 31.2083 11.2011C30.1064 9.70568 28.1387 8.44638 25.2266 7.46256C21.6061 6.28196 18.5366 5.25878 16.0967 4.74719V35.2459L22.6686 37.2529V11.9095C22.6293 10.3747 25.3053 10.4927 25.3053 12.7752Z" fill="#51535A"/>
<path d="M41.9908 28.5165C41.9515 27.4539 40.6922 26.6275 38.4491 25.8798C35.9305 25.0534 33.766 24.6599 31.4048 24.7386C29.2404 24.7779 26.6431 25.4863 24.3213 26.234V30.1299L30.6965 27.8868C30.6965 27.8868 32.6248 27.1785 34.2776 27.6113C35.5369 27.9262 35.4582 28.6345 34.1989 29.0674L32.7429 29.6577L24.3213 32.6879V36.6626L28.2566 35.2458L37.7013 31.9008L38.8032 31.3892C41.0857 30.5628 42.1089 29.6577 41.9908 28.5165Z" fill="#51535A"/>
</g>
<defs>
<clipPath id="clip0_183_5850">
<rect width="42" height="42" fill="white"/>
</clipPath>
</defs>
</svg>
