<svg width="314" height="50" viewBox="0 0 314 50" fill="none" xmlns="http://www.w3.org/2000/svg">
<g clip-path="url(#clip0_183_5894)">
<path d="M81.221 37.8935L73.2348 27.6124C78.3624 26.4124 81.9469 23.0659 81.9469 17.5176V17.4228C81.9469 14.64 80.9296 12.1641 79.2107 10.4435C77.0141 8.2469 73.5745 6.93311 69.2831 6.93311H56.6141C55.3693 6.93311 54.2969 7.99517 54.2969 9.29862V39.521C54.2969 40.8245 55.3693 41.8866 56.6141 41.8866C57.9124 41.8866 58.9779 40.8228 58.9779 39.521V28.4917H68.0538L77.4503 40.7004C77.9658 41.3883 78.6641 41.8866 79.5814 41.8866C80.7676 41.8866 81.9469 40.8141 81.9469 39.5676C81.9469 38.9348 81.6779 38.409 81.221 37.8935ZM77.2176 17.5676V17.6641C77.2176 21.7797 73.7451 24.1969 68.9434 24.1969H58.9779V11.3245H68.9917C74.1538 11.3245 77.2176 13.6383 77.2176 17.5676Z" fill="white"/>
<path d="M88.7339 39.2797C88.7339 40.5814 89.8063 41.6435 91.0511 41.6435H112.327C113.534 41.6435 114.498 40.6779 114.498 39.471C114.498 38.2659 113.534 37.3003 112.327 37.3003H93.4149V26.3141H109.91C111.117 26.3141 112.082 25.3503 112.082 24.1435C112.082 22.9969 111.117 21.971 109.91 21.971H93.4149V11.2779H112.086C113.291 11.2779 114.258 10.3124 114.258 9.10552C114.258 7.89862 113.291 6.93311 112.086 6.93311H91.0511C89.8063 6.93311 88.7339 7.99517 88.7339 9.29862V39.2797Z" fill="white"/>
<path d="M134.202 42.0442H134.455C135.722 42.0218 136.51 41.308 137.012 40.1942L150.124 9.90631C150.241 9.61493 150.3 9.32355 150.3 8.97356C150.3 7.78218 149.293 6.70459 147.983 6.70459C146.945 6.70459 146.117 7.48907 145.712 8.29597C145.707 8.30459 145.702 8.31321 145.698 8.32356L134.348 35.5115L123.043 8.42011C122.639 7.43907 121.817 6.70459 120.664 6.70459C119.357 6.70459 118.296 7.83735 118.296 9.02011C118.296 9.4339 118.358 9.727 118.534 10.0787L131.581 40.1839C132.034 41.3184 132.896 42.0442 134.202 42.0442Z" fill="white"/>
<path d="M156.39 9.07011V39.5339C156.39 40.8374 157.462 41.8994 158.707 41.8994C160.007 41.8994 161.071 40.8339 161.071 39.5339V9.07011C161.071 7.76838 160.007 6.70459 158.707 6.70459C157.462 6.70459 156.39 7.76666 156.39 9.07011Z" fill="white"/>
<path d="M193.206 6.93483L193.151 6.93311H172.114C170.871 6.93311 169.799 7.99517 169.799 9.29862V39.2797C169.799 40.5814 170.871 41.6435 172.114 41.6435H193.392C194.595 41.6435 195.563 40.6779 195.563 39.471C195.563 38.2659 194.597 37.3003 193.392 37.3003H174.48V26.3141H190.973C192.182 26.3141 193.145 25.3503 193.145 24.1435C193.145 22.9969 192.182 21.971 190.973 21.971H174.48V11.2779H193.151C194.354 11.2779 195.323 10.3124 195.323 9.10552C195.323 7.91759 194.385 6.96414 193.206 6.93483Z" fill="white"/>
<path d="M234.552 42.0891H234.949C236.076 42.0667 236.888 41.2925 237.285 40.1563C237.283 40.1615 248.116 10.0856 248.116 10.0856C248.118 10.0805 248.119 10.077 248.119 10.0736C248.228 9.74252 248.383 9.35114 248.383 9.02011C248.383 7.8339 247.263 6.70459 246.018 6.70459C244.904 6.70459 244.125 7.4408 243.771 8.49597C243.773 8.49252 234.811 34.2701 234.811 34.2701L226.359 8.49769C226.009 7.44425 225.233 6.70459 224.066 6.70459V6.70804L223.823 6.70459C222.595 6.70459 221.878 7.44425 221.528 8.49769L213.076 34.2684L204.163 8.58735C203.818 7.55114 202.932 6.70459 201.773 6.70459C200.475 6.70459 199.361 7.82873 199.361 9.06838C199.361 9.40459 199.463 9.7408 199.575 10.0753L210.409 40.1581C210.807 41.3477 211.619 42.0684 212.745 42.0891H213.142C214.268 42.0667 215.082 41.2925 215.476 40.1563L223.825 15.3494L232.218 40.1563C232.614 41.2925 233.428 42.0667 234.552 42.0891Z" fill="white"/>
<path d="M273.008 32.4381V32.5347C273.008 35.6588 270.151 37.8588 265.896 37.8588C261.713 37.8588 258.608 36.5916 255.508 33.964L255.499 33.9554C255.192 33.6571 254.651 33.4088 254.049 33.4088C252.797 33.4088 251.778 34.4157 251.778 35.7261C251.778 36.5019 252.144 37.1571 252.677 37.5244C256.525 40.5761 260.718 42.1537 265.751 42.1537C272.742 42.1537 277.737 38.1847 277.737 32.1485V32.0502C277.737 26.6864 274.19 23.7606 266.373 22.0571C266.373 22.0554 266.371 22.0554 266.371 22.0554C259.268 20.533 257.525 18.945 257.525 15.9002V15.8037C257.525 12.9606 260.192 10.7709 264.299 10.7709C267.351 10.7709 270.027 11.6192 272.797 13.6381C272.799 13.6381 272.799 13.6399 272.801 13.6399C273.213 13.9364 273.628 14.0588 274.165 14.0588C275.416 14.0588 276.432 13.045 276.432 11.7899C276.432 10.9054 275.909 10.2537 275.437 9.89849C275.433 9.89676 275.432 9.89504 275.428 9.89332C272.261 7.61745 268.949 6.47607 264.396 6.47607C257.694 6.47607 252.842 10.6002 252.842 16.1433L253.273 16.5744L252.842 16.145V16.2364L253.273 16.6692L252.842 16.2381C252.842 21.9968 256.483 24.6761 264.547 26.4278C264.547 26.4278 264.547 26.4278 264.549 26.4278C271.315 27.8571 273.008 29.445 273.008 32.4381Z" fill="white"/>
<path d="M282.936 37.1802H282.896C281.986 37.1802 281.339 37.8302 281.339 38.7095L281.598 38.9681L281.339 38.7095V39.2509C281.339 40.1267 281.988 40.8078 282.896 40.8078C283.772 40.8078 284.426 40.1285 284.426 39.2509C284.426 39.3922 284.31 39.5095 284.167 39.5095C284.167 39.5095 284.426 39.4802 284.426 39.2371V38.7095C284.426 37.8422 283.793 37.1991 282.936 37.1802ZM281.62 39.5043C281.607 39.5078 281.598 39.5095 281.598 39.5095C281.605 39.5095 281.613 39.5078 281.62 39.5078V39.5043Z" fill="white"/>
<path d="M288.538 27.3162V39.4593C288.538 40.1989 289.111 40.7731 289.85 40.7731C290.595 40.7731 291.138 40.2007 291.138 39.4593V27.3162C291.138 26.5731 290.564 26.0024 289.824 26.0024C289.116 26.0024 288.538 26.6076 288.538 27.3162ZM288.349 22.3662C288.349 23.1593 288.999 23.7334 289.824 23.7334C290.681 23.7334 291.326 23.1576 291.326 22.3662V22.0162C291.326 21.1886 290.681 20.6472 289.824 20.6472C288.999 20.6472 288.349 21.1869 288.349 22.0162V22.3662Z" fill="white"/>
<path fill-rule="evenodd" clip-rule="evenodd" d="M309.539 33.3951V33.3365C309.539 29.2451 306.348 25.8279 302.006 25.8279C297.639 25.8279 294.444 29.3003 294.444 33.39L294.498 33.4434L294.444 33.39V33.4434C294.444 37.5313 297.61 40.9503 301.951 40.9503C306.32 40.9503 309.537 37.4796 309.539 33.3951ZM306.886 33.4434V33.39C306.886 30.5331 304.756 28.1831 301.951 28.1831C299.07 28.1831 297.098 30.5313 297.098 33.3365V33.39C297.098 36.2451 299.203 38.5658 302.006 38.5658C304.886 38.5658 306.886 36.2451 306.886 33.4434Z" fill="white"/>
<path fill-rule="evenodd" clip-rule="evenodd" d="M40.1885 10.0566L38.1091 11.0997C42.1626 14.3722 44.1436 18.5997 44.5109 23.7153C44.204 33.5894 39.5454 39.9342 31.5419 42.6566C22.2971 45.4411 16.4385 43.1877 10.7695 37.4118L10.4126 39.6325L12.7178 42.0342C20.735 50.3894 34.0264 50.6635 42.3816 42.6463C50.7367 34.6291 51.0109 21.336 42.9936 12.9808L40.1885 10.0566Z" fill="#FFE51C"/>
<path fill-rule="evenodd" clip-rule="evenodd" d="M9.14337 38.3722L10.5347 37.1567C4.74854 28.955 4.50544 16.9498 12.4261 10.3412C18.2968 5.44117 29.9451 2.90152 39.2641 11.1067L39.9589 9.88255L37.6882 7.51531C29.671 -0.838137 16.3779 -1.11228 8.02441 6.90497C-0.330768 14.9222 -0.604905 28.2136 7.41234 36.5688L9.14337 38.3722Z" fill="#00E5D6"/>
<path d="M4.01318 24.7558C4.01318 36.3644 13.4253 45.7765 25.0339 45.7765C36.6442 45.7765 46.0563 36.3644 46.0563 24.7558C46.0563 13.1455 36.6442 3.7334 25.0339 3.7334C13.4253 3.7334 4.01318 13.1455 4.01318 24.7558ZM18.6442 28.5575C18.8649 27.8593 18.6201 27.0972 18.0321 26.6575C16.4753 25.4955 13.408 23.2041 11.3477 21.6662C11.0494 21.4437 10.9287 21.0558 11.0442 20.7024C11.1615 20.3506 11.4925 20.1127 11.8632 20.1127H19.8528C20.5959 20.1127 21.2546 19.6368 21.489 18.93C22.1184 17.0282 23.3701 13.2472 24.2011 10.742C24.3166 10.3903 24.6459 10.1524 25.0166 10.1506C25.389 10.1506 25.7184 10.3886 25.8356 10.7403C26.6753 13.2472 27.9425 17.0334 28.577 18.9351C28.8132 19.6386 29.4718 20.1127 30.2132 20.1127C32.1028 20.1127 35.7425 20.1127 38.2218 20.1127C38.5925 20.1127 38.9218 20.3489 39.039 20.7006C39.1563 21.0524 39.0373 21.4403 38.7408 21.6627C36.6856 23.211 33.6166 25.5231 32.0632 26.692C31.4787 27.1317 31.2356 27.892 31.458 28.5903C32.058 30.4868 33.2615 34.2886 34.0753 36.8558C34.189 37.2162 34.0563 37.6075 33.7477 37.8231C33.439 38.0386 33.027 38.03 32.7287 37.8006C30.6632 36.2162 27.6477 33.9006 26.0684 32.6886C25.4477 32.2127 24.5839 32.2144 23.9632 32.692C22.3994 33.9024 19.4253 36.2024 17.377 37.7851C17.0787 38.0162 16.6666 38.0265 16.3563 37.811C16.0477 37.5937 15.9149 37.2024 16.0287 36.8437C16.8408 34.2679 18.0442 30.4593 18.6442 28.5575Z" fill="white"/>
</g>
<defs>
<clipPath id="clip0_183_5894">
<rect width="312.069" height="50" fill="white" transform="translate(0.965332)"/>
</clipPath>
</defs>
</svg>
