<svg width="20" height="17" viewBox="0 0 20 17" fill="none" xmlns="http://www.w3.org/2000/svg">
<path fill-rule="evenodd" clip-rule="evenodd" d="M15.0005 4.81194C14.3901 3.18695 13.4062 1.60584 11.8935 0.686169C11.3233 0.333826 10.6647 0.135873 10 0.111084C9.3353 0.135873 8.67679 0.333826 8.1066 0.686169C6.59389 1.60584 5.60991 3.18695 4.99951 4.81194C4.98547 4.85309 4.97163 4.89446 4.95777 4.9359L4.95776 4.93593C4.92831 5.02398 4.89874 5.11237 4.86682 5.19982C4.4422 6.55942 4.29419 7.98436 4.29215 9.40316C4.21355 9.75838 4.11454 10.135 3.82568 10.382C3.56368 10.6041 3.2609 10.7692 2.95897 10.9339L2.95896 10.9339C2.84448 10.9964 2.73012 11.0587 2.61816 11.1241C1.56579 11.6304 0.741047 12.4909 0 13.3728C0.427684 13.087 0.995208 13.0063 1.47291 13.2084C1.81187 13.3414 2.07639 13.5988 2.33267 13.8481L2.34869 13.8637C3.29694 14.8069 4.38912 15.5959 5.54662 16.2604C5.78649 16.4043 6.60819 16.8177 6.87766 16.8994C6.49487 16.2604 6.17949 15.1447 6.11212 14.5007C5.98657 12.9196 6.0478 11.515 6.49487 9.98702C6.87969 8.79991 7.44721 7.622 8.36995 6.75948C8.82723 6.36753 9.38247 6.04498 10 6.03171C10.6175 6.04498 11.1728 6.36753 11.6301 6.75948C12.5528 7.622 13.1203 8.79991 13.5051 9.98702C13.9522 11.515 14.0134 12.9196 13.8879 14.5007C13.8205 15.1447 13.5051 16.2604 13.1223 16.8994C13.3918 16.8177 14.2135 16.4043 14.4534 16.2604C15.6109 15.5959 16.7031 14.8069 17.6513 13.8637L17.6673 13.8481C17.9236 13.5988 18.1881 13.3414 18.5271 13.2084C19.0048 13.0063 19.5723 13.087 20 13.3728C19.259 12.4909 18.4342 11.6304 17.3818 11.1241C17.2699 11.0587 17.1555 10.9963 17.041 10.9339C16.7391 10.7692 16.4363 10.6041 16.1743 10.382C15.8855 10.135 15.7864 9.75838 15.7079 9.40316C15.7058 7.98436 15.5578 6.55942 15.1332 5.19982C15.1013 5.11238 15.0717 5.02401 15.0423 4.93597L15.0422 4.93595L15.0422 4.93571C15.0283 4.89433 15.0145 4.85303 15.0005 4.81194ZM10.3705 10.7903C10.3093 10.1064 10.9452 9.64201 11.5301 9.46644C11.7912 9.38808 12.0588 9.38033 12.3265 9.37257H12.3265C12.3703 9.3713 12.4141 9.37003 12.4579 9.36845C12.4528 10.0227 11.7936 10.3667 11.2249 10.4984L11.2153 10.5006C10.656 10.6301 10.6386 10.6342 10.3705 10.7903ZM8.33419 9.46644C8.91906 9.64201 9.55498 10.1064 9.49373 10.7903C9.22569 10.6342 9.20825 10.6301 8.64895 10.5006L8.63939 10.4984C8.07071 10.3667 7.41145 10.0227 7.40635 9.36845C7.45015 9.37003 7.49399 9.3713 7.53782 9.37257C7.8055 9.38033 8.07313 9.38808 8.33419 9.46644Z" fill="url(#paint0_linear_525_8999)"/>
<defs>
<linearGradient id="paint0_linear_525_8999" x1="1.55797" y1="18.9343" x2="19.058" y2="0.111084" gradientUnits="userSpaceOnUse">
<stop stop-color="#D33B4B"/>
<stop offset="1" stop-color="#F4495A"/>
</linearGradient>
</defs>
</svg>
