<svg width="20" height="21" viewBox="0 0 20 21" fill="none" xmlns="http://www.w3.org/2000/svg">
<path d="M19.3716 10.3007L16.1959 13.521L16.9455 18.068C17.0794 18.8804 16.7583 19.7015 16.1174 20.186C15.4821 20.6661 14.633 20.7377 13.9253 20.3508L10 18.204L6.07474 20.3508C5.37342 20.7344 4.52375 20.6706 3.88266 20.186C3.2417 19.7015 2.92059 18.8805 3.05464 18.068L3.80425 13.521L0.628594 10.3007C0.0613186 9.72541 -0.142944 8.86487 0.101978 8.08099C0.346761 7.29711 0.998127 6.72572 1.78229 6.6072L6.17091 5.94386L8.13347 1.80676C8.48414 1.06763 9.2078 0.599609 10 0.599609C10.7922 0.599609 11.5159 1.06748 11.8666 1.80661L13.8293 5.94372L18.2179 6.60706C19.0019 6.72558 19.6533 7.29696 19.8981 8.08084C20.1428 8.86472 19.9389 9.72541 19.3716 10.3007Z" fill="white"/>
</svg>
