<svg width="147" height="36" viewBox="0 0 147 36" fill="none" xmlns="http://www.w3.org/2000/svg">
<g clip-path="url(#clip0_260_6407)">
<path d="M38.582 12.8189H53.3855V15.5676H47.5568V31.0622H44.3619V15.5676H38.5576L38.582 12.8189ZM52.7514 17.854H55.4828V20.4081H55.5316C55.6292 20.0432 55.7999 19.7027 56.0438 19.3622C56.2876 19.0216 56.5803 18.7054 56.9461 18.4378C57.2875 18.1459 57.6777 17.927 58.1167 17.7567C58.5313 17.5865 58.9703 17.4892 59.4093 17.4892C59.7507 17.4892 59.9946 17.5135 60.1165 17.5135C60.2385 17.5378 60.3848 17.5622 60.5067 17.5622V20.3594C60.3116 20.3108 60.0922 20.2865 59.8727 20.2621C59.6532 20.2378 59.4581 20.2135 59.2386 20.2135C58.7508 20.2135 58.2874 20.3108 57.8485 20.5054C57.4095 20.7 57.0437 20.9919 56.7022 21.3567C56.3852 21.7459 56.1169 22.2081 55.9218 22.7676C55.7267 23.327 55.6292 23.9838 55.6292 24.7135V30.9892H52.7026L52.7514 17.854ZM73.9201 31.0622H71.0423V29.2135H70.9936C70.6277 29.8946 70.0912 30.4054 69.384 30.8189C68.6767 31.2324 67.9451 31.427 67.2134 31.427C65.4819 31.427 64.2137 31.0135 63.4333 30.1378C62.6529 29.2865 62.2627 27.973 62.2627 26.2459V17.854H65.1892V25.954C65.1892 27.1216 65.4087 27.9486 65.8721 28.4108C66.3111 28.8973 66.9452 29.1405 67.75 29.1405C68.3597 29.1405 68.8718 29.0432 69.2864 28.8486C69.701 28.654 70.0424 28.4108 70.2863 28.0946C70.5546 27.7784 70.7253 27.3892 70.8472 26.9513C70.9692 26.5135 71.0179 26.027 71.0179 25.5162V17.854H73.9445V31.0622H73.9201ZM78.8952 26.8297C78.9928 27.6811 79.3098 28.2649 79.8708 28.6297C80.4317 28.9703 81.1145 29.1405 81.895 29.1405C82.1632 29.1405 82.4803 29.1162 82.8217 29.0676C83.1631 29.0189 83.5046 28.9459 83.7972 28.8243C84.1143 28.7027 84.3581 28.5324 84.5532 28.2892C84.7483 28.0459 84.8459 27.754 84.8215 27.3892C84.7971 27.0243 84.6752 26.7081 84.4069 26.4648C84.1386 26.2216 83.8216 26.0513 83.4314 25.8811C83.0412 25.7351 82.5778 25.6135 82.0657 25.5162C81.5535 25.4189 81.0414 25.2973 80.5048 25.1757C79.9683 25.054 79.4318 24.9081 78.9196 24.7378C78.4075 24.5676 77.9685 24.3486 77.5539 24.0324C77.1637 23.7405 76.8223 23.3757 76.6028 22.9135C76.3589 22.4513 76.237 21.9162 76.237 21.2351C76.237 20.5054 76.4077 19.9216 76.7735 19.4351C77.1149 18.9486 77.5783 18.5594 78.1148 18.2676C78.6514 17.9757 79.2611 17.7567 79.9195 17.6351C80.578 17.5135 81.2121 17.4648 81.7974 17.4648C82.4803 17.4648 83.1387 17.5378 83.7484 17.6838C84.3581 17.8297 84.9434 18.0486 85.4312 18.3892C85.9433 18.7054 86.3579 19.1432 86.675 19.654C87.0164 20.1648 87.2115 20.7973 87.3091 21.527H84.2606C84.1143 20.8216 83.7972 20.3594 83.3095 20.1162C82.7973 19.873 82.2364 19.7513 81.5779 19.7513C81.3828 19.7513 81.1145 19.7757 80.8463 19.8C80.5536 19.8486 80.3097 19.8973 80.0415 19.9946C79.7976 20.0919 79.5781 20.2378 79.4074 20.4081C79.2367 20.5784 79.1391 20.8216 79.1391 21.1135C79.1391 21.4784 79.2611 21.7459 79.5049 21.9648C79.7488 22.1838 80.0659 22.354 80.4805 22.5243C80.8707 22.6703 81.334 22.7919 81.8462 22.8892C82.3583 22.9865 82.8949 23.1081 83.4314 23.2297C83.9679 23.3513 84.4801 23.4973 84.9922 23.6676C85.5044 23.8378 85.9677 24.0567 86.3579 24.373C86.7482 24.6649 87.0896 25.0297 87.3335 25.4676C87.5773 25.9054 87.6993 26.4649 87.6993 27.0973C87.6993 27.8757 87.5286 28.5324 87.1627 29.0919C86.7969 29.627 86.3336 30.0892 85.7726 30.4297C85.2117 30.7703 84.5532 31.0135 83.8704 31.1838C83.1631 31.3297 82.4803 31.427 81.7974 31.427C80.9682 31.427 80.1878 31.3297 79.4806 31.1351C78.7733 30.9405 78.1392 30.6486 77.6271 30.2838C77.1149 29.8946 76.7003 29.4324 76.4077 28.8486C76.115 28.2892 75.9443 27.6081 75.9199 26.8054H78.8709V26.8297H78.8952ZM88.5285 17.854H90.7478V13.8649H93.6743V17.8297H96.3082V19.9946H93.6743V27.0486C93.6743 27.3649 93.6987 27.6081 93.7231 27.8513C93.7475 28.0703 93.8207 28.2648 93.8938 28.4108C93.9914 28.5567 94.1377 28.6784 94.3084 28.7513C94.5035 28.8243 94.7474 28.873 95.0888 28.873C95.2839 28.873 95.5034 28.873 95.6985 28.8486C95.8936 28.8243 96.1131 28.8 96.3082 28.7513V31.0135C95.9912 31.0621 95.6741 31.0865 95.3571 31.1108C95.04 31.1594 94.7474 31.1594 94.406 31.1594C93.6255 31.1594 93.0159 31.0865 92.5525 30.9405C92.0891 30.7946 91.7233 30.5757 91.455 30.3081C91.1868 30.0162 91.016 29.6757 90.9185 29.2621C90.8209 28.8486 90.7722 28.3378 90.7478 27.8027V20.0189H88.5285V17.8054V17.854ZM98.3568 17.854H101.113V19.654H101.161C101.576 18.8757 102.137 18.3405 102.869 18C103.6 17.6594 104.381 17.4892 105.259 17.4892C106.307 17.4892 107.21 17.6594 107.99 18.0486C108.77 18.4135 109.405 18.9 109.917 19.5567C110.429 20.1892 110.819 20.9432 111.063 21.7946C111.307 22.6459 111.453 23.5703 111.453 24.5189C111.453 25.4189 111.331 26.2703 111.112 27.0973C110.868 27.9243 110.526 28.6784 110.063 29.3108C109.6 29.9432 109.014 30.454 108.283 30.8432C107.551 31.2324 106.722 31.427 105.746 31.427C105.332 31.427 104.893 31.3784 104.478 31.3054C104.064 31.2324 103.649 31.1108 103.259 30.9405C102.869 30.7703 102.503 30.5513 102.186 30.2838C101.844 30.0162 101.576 29.7 101.357 29.3594H101.308V35.9513H98.3812V17.854H98.3568ZM108.575 24.4703C108.575 23.8865 108.502 23.3027 108.331 22.7432C108.185 22.1838 107.941 21.6973 107.624 21.2594C107.307 20.8216 106.917 20.4811 106.478 20.2135C106.015 19.9459 105.478 19.8243 104.893 19.8243C103.673 19.8243 102.747 20.2378 102.113 21.0892C101.503 21.9405 101.186 23.0838 101.186 24.4946C101.186 25.1757 101.259 25.7838 101.43 26.3432C101.6 26.9027 101.82 27.3892 102.161 27.8027C102.478 28.2162 102.869 28.5324 103.332 28.7757C103.795 29.0189 104.307 29.1405 104.917 29.1405C105.6 29.1405 106.137 28.9946 106.6 28.727C107.063 28.4594 107.429 28.0946 107.746 27.6811C108.039 27.2432 108.258 26.7567 108.38 26.1973C108.502 25.6135 108.575 25.054 108.575 24.4703ZM113.721 12.8189H116.648V15.5676H113.721V12.8189ZM113.721 17.854H116.648V31.0622H113.721V17.854ZM119.257 12.8189H122.184V31.0622H119.257V12.8189ZM131.11 31.427C130.061 31.427 129.11 31.2567 128.281 30.8919C127.452 30.527 126.769 30.0649 126.183 29.4567C125.623 28.8486 125.184 28.0946 124.891 27.2432C124.598 26.3919 124.427 25.4432 124.427 24.4459C124.427 23.4486 124.574 22.5243 124.891 21.673C125.184 20.8216 125.623 20.0919 126.183 19.4594C126.744 18.8513 127.452 18.3649 128.281 18.0243C129.11 17.6838 130.061 17.4892 131.11 17.4892C132.158 17.4892 133.11 17.6594 133.939 18.0243C134.768 18.3649 135.451 18.8513 136.036 19.4594C136.597 20.0676 137.036 20.8216 137.329 21.673C137.621 22.5243 137.792 23.4486 137.792 24.4459C137.792 25.4676 137.646 26.3919 137.329 27.2432C137.012 28.0946 136.597 28.8243 136.036 29.4567C135.475 30.0649 134.768 30.5513 133.939 30.8919C133.11 31.2324 132.183 31.427 131.11 31.427ZM131.11 29.1162C131.744 29.1162 132.329 28.9703 132.793 28.7027C133.28 28.4351 133.646 28.0703 133.963 27.6324C134.28 27.1946 134.5 26.6838 134.646 26.1486C134.792 25.5892 134.866 25.0297 134.866 24.4459C134.866 23.8865 134.792 23.327 134.646 22.7676C134.5 22.2081 134.28 21.7216 133.963 21.2838C133.646 20.8459 133.256 20.5054 132.793 20.2378C132.305 19.9703 131.744 19.8243 131.11 19.8243C130.476 19.8243 129.89 19.9703 129.427 20.2378C128.939 20.5054 128.573 20.8703 128.256 21.2838C127.939 21.7216 127.72 22.2081 127.574 22.7676C127.427 23.327 127.354 23.8865 127.354 24.4459C127.354 25.0297 127.427 25.5892 127.574 26.1486C127.72 26.7081 127.939 27.1946 128.256 27.6324C128.573 28.0703 128.964 28.4351 129.427 28.7027C129.915 28.9946 130.476 29.1162 131.11 29.1162ZM138.67 17.854H140.889V13.8649H143.816V17.8297H146.45V19.9946H143.816V27.0486C143.816 27.3649 143.84 27.6081 143.865 27.8513C143.889 28.0703 143.962 28.2648 144.035 28.4108C144.133 28.5567 144.279 28.6784 144.45 28.7513C144.645 28.8243 144.889 28.873 145.23 28.873C145.425 28.873 145.645 28.873 145.84 28.8486C146.035 28.8243 146.255 28.8 146.45 28.7513V31.0135C146.133 31.0621 145.816 31.0865 145.499 31.1108C145.182 31.1594 144.889 31.1594 144.548 31.1594C143.767 31.1594 143.157 31.0865 142.694 30.9405C142.231 30.7946 141.865 30.5757 141.597 30.3081C141.328 30.0162 141.158 29.6757 141.06 29.2621C140.963 28.8486 140.914 28.3378 140.889 27.8027V20.0189H138.67V17.8054V17.854Z" fill="black"/>
<path d="M35.1675 12.8189H21.7785L17.657 0.121643L13.511 12.8189L0.12207 12.7946L10.9503 20.6514L6.80436 33.3487L17.6326 25.4919L28.4608 33.3487L24.3393 20.6514L35.1675 12.8189Z" fill="#00B67A"/>
<path d="M25.2648 23.5216L24.3381 20.6514L17.6558 25.4919L25.2648 23.5216Z" fill="#005128"/>
</g>
<defs>
<clipPath id="clip0_260_6407">
<rect width="146.571" height="36" fill="white"/>
</clipPath>
</defs>
</svg>
