<svg width="22" height="16" viewBox="0 0 22 16" fill="none" xmlns="http://www.w3.org/2000/svg">
    <g clip-path="url(#clip0_72_2461)">
        <path d="M-2 -0.528809H24V16.528H-2V-0.528809Z" fill="white"/>
        <path d="M9.90231 -0.528809V6.65207H-2V9.69244H9.90231V16.5288H12.313V9.69244H24V6.65207H12.313V-0.528809H9.90231Z" fill="#BD0034"/>
        <path d="M9.09794 -0.528809H0.03125L9.09794 5.205V-0.528809Z" fill="#1A237B"/>
        <path d="M-2 5.63885H4.39031L-2 1.58691V5.63885Z" fill="#1A237B"/>
        <path d="M-2 -0.53125V0.4665L5.66919 5.25456H7.55256C7.55256 5.25456 -0.00612467 0.572937 -1.80175 -0.53125H-2Z" fill="#BD0034"/>
        <path d="M9.09794 16.5288H0.03125L9.09794 10.795V16.5288Z" fill="#1A237B"/>
        <path d="M-2 10.3611H4.39031L-2 14.4131V10.3611Z" fill="#1A237B"/>
        <path d="M-2 16.5312V15.5335L5.66919 10.7454H7.55256C7.55256 10.7454 -0.00612467 15.427 -1.80175 16.5312H-2Z" fill="#BD0034"/>
        <path d="M12.9019 -0.528809H21.9685L12.9019 5.205V-0.528809Z" fill="#1A237B"/>
        <path d="M24.0002 5.63885H17.6099L24.0002 1.58691V5.63885Z" fill="#1A237B"/>
        <path d="M23.9998 -0.53125V0.4665L16.3306 5.25456H14.4473C14.4473 5.25456 22.0035 0.572937 23.8016 -0.528813L23.9998 -0.53125Z" fill="#BD0034"/>
        <path d="M12.9019 16.5288H21.9685L12.9019 10.795V16.5288Z" fill="#1A237B"/>
        <path d="M24.0002 10.3611H17.6099L24.0002 14.4131V10.3611Z" fill="#1A237B"/>
        <path d="M23.9998 16.5312V15.5335L16.3306 10.7454H14.4473C14.4473 10.7454 22.0035 15.427 23.8016 16.5288L23.9998 16.5312Z" fill="#BD0034"/>
    </g>
    <defs>
        <clipPath id="clip0_72_2461">
            <rect width="22" height="16" rx="8" fill="white"/>
        </clipPath>
    </defs>
</svg>
