<svg width="24" height="26" viewBox="0 0 24 26" fill="none" xmlns="http://www.w3.org/2000/svg">
<path fill-rule="evenodd" clip-rule="evenodd" d="M12.0001 0.937256C7.67672 0.937256 3.95432 3.9889 3.10643 8.22836L1.70685 15.2263C1.25145 17.5033 2.4601 19.7914 4.57101 20.7296C5.32592 21.0651 6.10053 21.3467 6.8885 21.5744L6.99234 21.8081C7.87197 23.7872 9.83465 25.0627 12.0005 25.0627C14.1663 25.0627 16.129 23.7872 17.0086 21.8081L17.1126 21.5742C17.9003 21.3465 18.6746 21.065 19.4293 20.7296C21.5402 19.7914 22.7488 17.5033 22.2935 15.2263L20.8939 8.22836C20.046 3.98889 16.3236 0.937256 12.0001 0.937256ZM16.3292 19.9242C16.2668 19.9338 16.2056 19.95 16.1468 19.9722C13.4356 20.6701 10.5669 20.6703 7.85555 19.9728C7.79582 19.95 7.73369 19.9336 7.67022 19.924C6.8634 19.7063 6.07123 19.4266 5.30206 19.0847C3.9497 18.4837 3.18403 17.0186 3.47189 15.5793L4.87148 8.58137C5.5511 5.18327 8.53475 2.73726 12.0001 2.73726C15.4656 2.73726 18.4492 5.18327 19.1288 8.58137L20.5284 15.5793C20.8163 17.0186 20.0506 18.4837 18.6982 19.0847C17.9288 19.4267 17.1363 19.7065 16.3292 19.9242ZM9.31593 22.1002C11.0945 22.361 12.9066 22.361 14.6851 22.1001C14.0012 22.8291 13.0354 23.2627 12.0005 23.2627C10.9656 23.2627 9.99984 22.8291 9.31593 22.1002Z" fill="#22272F"/>
</svg>
