<svg width="440" height="129" viewBox="0 0 440 129" fill="none" xmlns="http://www.w3.org/2000/svg">
<path d="M0 57.5C0 43.0801 0 35.8702 1.75195 29.9961C5.80083 16.4205 16.4205 5.80083 29.9961 1.75195C35.8702 0 43.0801 0 57.5 0H382.5C396.92 0 404.13 0 410.004 1.75195C423.579 5.80083 434.199 16.4205 438.248 29.9961C440 35.8702 440 43.0801 440 57.5C440 71.9199 440 79.1298 438.248 85.0039C434.199 98.5795 423.579 109.199 410.004 113.248C404.13 115 396.92 115 382.5 115H284.357C277.266 115 273.721 115 270.214 115.228C260.387 115.869 250.693 117.85 241.402 121.118C238.087 122.283 234.826 123.675 228.304 126.457C226.315 127.306 225.32 127.73 224.316 128.012C221.493 128.802 218.507 128.802 215.684 128.012C214.68 127.73 213.685 127.306 211.696 126.457C205.174 123.675 201.913 122.283 198.598 121.118C189.307 117.85 179.613 115.869 169.786 115.228C166.279 115 162.734 115 155.643 115H57.5C43.0801 115 35.8702 115 29.9961 113.248C16.4205 109.199 5.80083 98.5795 1.75195 85.0039C0 79.1298 0 71.9199 0 57.5Z" fill="#FC485A"/>
</svg>
