<svg width="23" height="23" viewBox="0 0 23 23" fill="none" xmlns="http://www.w3.org/2000/svg">
<path d="M11.4593 21.9154C17.2349 21.9154 21.917 17.2333 21.917 11.4577C21.917 5.68208 17.2349 1 11.4593 1C5.68365 1 1.00157 5.68208 1.00157 11.4577C1.00157 13.0253 1.34683 14.5124 1.96514 15.8471C2.45341 16.9011 2.91556 17.7997 2.57498 18.9849C2.41115 19.555 2.00058 20.1165 1.95182 20.7101C1.89606 21.3891 2.49397 21.9392 3.16595 21.8273C4.53408 21.5993 5.19261 20.5114 6.78 20.8847C6.95204 20.9252 7.40043 21.0856 8.29715 21.4063C9.24595 21.7457 10.2678 21.9154 11.4593 21.9154Z" stroke="#191F2B" stroke-width="1.8" stroke-linecap="round" stroke-linejoin="round"/>
</svg>
