<svg width="42" height="42" viewBox="0 0 42 42" fill="none" xmlns="http://www.w3.org/2000/svg">
<path d="M27.4253 3H14.5747C12.0378 3 10 5.00455 10 7.5V34.5C10 36.9955 12.0794 39 14.5747 39H27.4253C29.9622 39 32 36.9955 32 34.5V7.5C32 5.00455 29.9622 3 27.4253 3ZM21.0208 36.0955C19.8563 36.0955 18.9414 35.1955 18.9414 34.05C18.9414 32.9045 19.8563 32.0045 21.0208 32.0045C22.1853 32.0045 23.1002 32.9045 23.1002 34.05C23.1002 35.1955 22.1853 36.0955 21.0208 36.0955ZM29.9206 29.8364H12.0794V9.01364H29.9206V29.8364Z" fill="#51535A"/>
</svg>
