<svg width="24" height="24" viewBox="0 0 24 24" fill="none" xmlns="http://www.w3.org/2000/svg">
<path d="M21.3716 11.3007L18.1959 14.521L18.9455 19.068C19.0794 19.8804 18.7583 20.7015 18.1174 21.186C17.4821 21.6661 16.633 21.7377 15.9253 21.3508L12 19.204L8.07474 21.3508C7.37342 21.7344 6.52375 21.6706 5.88266 21.186C5.2417 20.7015 4.92059 19.8805 5.05464 19.068L5.80425 14.521L2.62859 11.3007C2.06132 10.7254 1.85706 9.86487 2.10198 9.08099C2.34676 8.29711 2.99813 7.72572 3.78229 7.6072L8.17091 6.94386L10.1335 2.80676C10.4841 2.06763 11.2078 1.59961 12 1.59961C12.7922 1.59961 13.5159 2.06748 13.8666 2.80661L15.8293 6.94372L20.2179 7.60706C21.0019 7.72558 21.6533 8.29696 21.8981 9.08084C22.1428 9.86472 21.9389 10.7254 21.3716 11.3007Z" fill="white" fill-opacity="0.29"/>
<g clip-path="url(#clip0_183_5926)">
<path d="M21.3716 11.3007L18.1959 14.521L18.9455 19.068C19.0794 19.8804 18.7583 20.7015 18.1174 21.186C17.4821 21.6661 16.633 21.7377 15.9253 21.3508L12 19.204L8.07474 21.3508C7.37342 21.7344 6.52375 21.6706 5.88266 21.186C5.2417 20.7015 4.92059 19.8805 5.05464 19.068L5.80425 14.521L2.62859 11.3007C2.06132 10.7254 1.85706 9.86487 2.10198 9.08099C2.34676 8.29711 2.99813 7.72572 3.78229 7.6072L8.17091 6.94386L10.1335 2.80676C10.4841 2.06763 11.2078 1.59961 12 1.59961C12.7922 1.59961 13.5159 2.06748 13.8666 2.80661L15.8293 6.94372L20.2179 7.60706C21.0019 7.72558 21.6533 8.29696 21.8981 9.08084C22.1428 9.86472 21.9389 10.7254 21.3716 11.3007Z" fill="white"/>
</g>
<defs>
<clipPath id="clip0_183_5926">
<rect width="14" height="22" fill="white" transform="translate(2 1)"/>
</clipPath>
</defs>
</svg>
