<svg width="42" height="42" viewBox="0 0 42 42" fill="none" xmlns="http://www.w3.org/2000/svg">
<path d="M12.13 7.71458C12.1138 7.72702 12.1014 7.7407 12.0864 7.75314C12.1772 7.65738 12.3078 7.55416 12.3936 7.4982C14.8982 5.87033 17.7921 4.99982 21.003 4.99982C24.0063 4.99982 26.8193 5.82929 29.2207 7.27186C29.3948 7.37508 29.8699 7.70091 30.1148 7.99688V7.99812C27.798 5.44378 20.9881 10.9243 20.9881 10.9243C18.6327 9.10865 16.4664 7.87128 14.8534 7.43105C13.5054 7.0617 12.5727 7.37011 12.13 7.71458ZM32.7388 10.1296C32.6679 10.0513 32.5908 9.97793 32.52 9.89709C31.9342 9.25416 31.2142 9.09871 30.565 9.14099C29.9743 9.32628 27.2446 10.31 23.8807 13.4861C23.8807 13.4861 27.6674 17.1684 29.9868 20.9328C32.3036 24.6971 33.6889 27.6556 32.8371 31.762C35.4225 28.9204 36.9994 25.1448 36.9994 20.9987C36.9994 16.8028 35.384 12.9837 32.7388 10.1296ZM26.9586 22.5407C25.9314 21.3879 24.403 19.7364 22.3847 17.7293C21.9432 17.2903 21.4768 16.8326 20.9869 16.3588C20.9869 16.3588 20.2494 17.0963 19.2894 18.0663V18.065C18.0607 19.3061 16.4676 20.9253 15.5834 21.8704C14.009 23.5505 9.49853 28.8271 9.24483 31.7856C9.24483 31.7856 8.24125 29.4389 10.4437 24.0268C11.8825 20.4888 16.2301 15.1762 18.0458 13.4451C18.0458 13.4451 16.3868 11.6195 14.305 10.3585L14.2926 10.3547C14.2926 10.3547 14.269 10.3361 14.2316 10.3125C13.2306 9.71553 12.1374 9.2554 11.0854 9.19446C10.0109 9.27032 9.33064 10.0563 9.33064 10.0563C6.64572 12.919 5.00293 16.7667 5.00293 20.9999C5.00293 29.8357 12.166 37 21.003 37C25.6926 37 29.9121 34.9779 32.8396 31.7632C32.8383 31.7583 32.5025 29.6491 30.3499 26.6234C29.8437 25.9146 27.9945 23.7022 26.9586 22.5407Z" fill="#51535A"/>
</svg>
