<svg width="16" height="20" viewBox="0 0 16 20" fill="none" xmlns="http://www.w3.org/2000/svg">
<path d="M14.6565 10.4925C14.1918 9.89168 13.4907 9.47899 12.5531 9.25468C13.7471 8.64564 14.2718 7.61195 14.1277 6.15344C14.0796 5.62456 13.9334 5.16618 13.6889 4.77766C13.4442 4.38904 13.114 4.07663 12.6971 3.84029C12.2805 3.60365 11.8274 3.42351 11.3388 3.29932C10.8501 3.17513 10.2891 3.08495 9.65604 3.02892V0H7.80521V2.94476C7.48471 2.94476 6.99595 2.95276 6.33895 2.9688V0H4.48787V3.02892C4.22337 3.03696 3.8348 3.04104 3.32199 3.04104L0.773926 3.02892V5.00015H2.10799C2.71699 5.00015 3.07357 5.27265 3.17772 5.81745V9.2671C3.25796 9.2671 3.32199 9.27123 3.37011 9.27923H3.17772V14.1109C3.11369 14.5194 2.88134 14.7239 2.48065 14.7239H1.14667L0.77401 16.9235H3.17793C3.3302 16.9235 3.55042 16.9255 3.83901 16.9292C4.12742 16.9332 4.34369 16.9352 4.48796 16.9352V20.0001H6.33933V16.9713C6.67579 16.9795 7.16455 16.9834 7.80559 16.9834V20.0001H9.65646V16.9352C10.3137 16.9032 10.8966 16.8434 11.4052 16.755C11.914 16.6665 12.4009 16.5285 12.8656 16.3401C13.3302 16.1519 13.7187 15.9174 14.0312 15.6369C14.3438 15.3567 14.602 15 14.8067 14.5672C15.0107 14.1344 15.1411 13.6336 15.197 13.0646C15.3016 11.9511 15.1212 11.0936 14.6565 10.4925ZM6.37495 5.132C6.43107 5.132 6.58931 5.12998 6.84974 5.12594C7.11029 5.12181 7.32655 5.11786 7.49882 5.11381C7.67112 5.10986 7.90351 5.11988 8.1961 5.14391C8.48856 5.16795 8.73492 5.20007 8.93518 5.24007C9.13544 5.28006 9.356 5.3462 9.59617 5.43835C9.83677 5.53042 10.0289 5.64266 10.173 5.77485C10.3174 5.90704 10.4395 6.07539 10.5395 6.27974C10.6398 6.48404 10.6899 6.71841 10.6899 6.98279C10.6899 7.20717 10.6539 7.41156 10.5819 7.59595C10.51 7.78022 10.4015 7.93451 10.2575 8.0587C10.1134 8.18294 9.96483 8.29121 9.81256 8.38328C9.66046 8.47535 9.46596 8.54953 9.22966 8.60557C8.9934 8.66168 8.78708 8.70576 8.61089 8.73775C8.43459 8.76983 8.21428 8.79194 7.94982 8.80389C7.68531 8.81585 7.48492 8.82401 7.34878 8.82797C7.2125 8.83193 7.02626 8.83193 6.78979 8.82797C6.55328 8.82401 6.41524 8.82191 6.37507 8.82191V5.13196H6.37495V5.132ZM11.4293 13.3171C11.353 13.5015 11.255 13.6619 11.1349 13.7982C11.0146 13.9342 10.8562 14.0545 10.66 14.1585C10.4638 14.2628 10.2733 14.3468 10.0892 14.4109C9.9048 14.4753 9.68235 14.5311 9.42218 14.5793C9.16142 14.6274 8.9332 14.6613 8.73668 14.6815C8.54046 14.7015 8.30618 14.7175 8.03364 14.7296C7.7613 14.7414 7.54883 14.7475 7.39664 14.7475C7.24437 14.7475 7.05202 14.7453 6.81964 14.7414C6.58713 14.7377 6.43902 14.7356 6.37486 14.7356V10.6729C6.4389 10.6729 6.62922 10.669 6.94581 10.6608C7.26243 10.6527 7.52071 10.649 7.72105 10.649C7.92136 10.649 8.19791 10.6608 8.55061 10.685C8.90298 10.7089 9.19948 10.7448 9.44007 10.7929C9.68037 10.841 9.9426 10.9151 10.2273 11.0153C10.5117 11.1154 10.7421 11.2376 10.9185 11.3818C11.0948 11.5263 11.2429 11.7103 11.3631 11.9348C11.4835 12.1591 11.5436 12.4155 11.5436 12.7041C11.5436 12.9287 11.5056 13.1327 11.4293 13.3171Z" fill="#FFCA8C"/>
</svg>
