<svg width="16" height="20" viewBox="0 0 16 20" fill="none" xmlns="http://www.w3.org/2000/svg">
<path d="M7.72196 11.111L6.12942 16.4811H14.6476C14.7041 16.4792 14.7603 16.4883 14.8132 16.5081C14.8661 16.5279 14.9145 16.5579 14.9558 16.5964C14.9971 16.6349 15.0304 16.6812 15.0538 16.7326C15.0771 16.784 15.0901 16.8395 15.0921 16.8959V17.0367L14.3513 19.5921C14.3187 19.713 14.2459 19.8191 14.145 19.8932C14.044 19.9672 13.9209 20.0047 13.7958 19.9995H0.75925L2.94435 12.5554L0.5 13.2961L1.05554 11.5924L3.49989 10.8517L6.57385 0.407658C6.60769 0.287487 6.68077 0.182095 6.78144 0.108266C6.88212 0.0344375 7.0046 -0.00358101 7.12939 0.000265672H10.4256C10.482 -0.00171364 10.5382 0.00744893 10.5911 0.0272293C10.644 0.0470096 10.6925 0.0770199 10.7338 0.115544C10.775 0.154068 10.8083 0.200351 10.8317 0.251745C10.8551 0.303139 10.8681 0.358637 10.87 0.415065V0.555801L8.27749 9.37029L10.7218 8.62958L10.2033 10.4073L7.72196 11.111Z" fill="#A7CAFF"/>
</svg>
