<svg width="124" height="34" viewBox="0 0 124 34" fill="none" xmlns="http://www.w3.org/2000/svg">
<g clip-path="url(#clip0_525_5892)">
<path d="M46.2108 7.24902H39.3718C38.9038 7.24902 38.5058 7.58902 38.4328 8.05102L35.6668 25.588C35.6118 25.934 35.8798 26.246 36.2308 26.246H39.4958C39.9638 26.246 40.3618 25.906 40.4348 25.443L41.1808 20.713C41.2528 20.25 41.6518 19.91 42.1188 19.91H44.2838C48.7888 19.91 51.3888 17.73 52.0678 13.41C52.3738 11.52 52.0808 10.035 51.1958 8.99502C50.2238 7.85302 48.4998 7.24902 46.2108 7.24902ZM46.9998 13.654C46.6258 16.108 44.7508 16.108 42.9378 16.108H41.9058L42.6298 11.525C42.6728 11.248 42.9128 11.044 43.1928 11.044H43.6658C44.9008 11.044 46.0658 11.044 46.6678 11.748C47.0268 12.168 47.1368 12.792 46.9998 13.654Z" fill="#96B0FF"/>
<path d="M66.654 13.5751H63.379C63.1 13.5751 62.859 13.7791 62.816 14.0561L62.671 14.9721L62.442 14.6401C61.733 13.6111 60.152 13.2671 58.574 13.2671C54.955 13.2671 51.864 16.0081 51.262 19.8531C50.949 21.7711 51.394 23.6051 52.482 24.8841C53.48 26.0601 54.908 26.5501 56.607 26.5501C59.523 26.5501 61.14 24.6751 61.14 24.6751L60.994 25.5851C60.939 25.9331 61.207 26.2451 61.556 26.2451H64.506C64.975 26.2451 65.371 25.9051 65.445 25.4421L67.215 14.2331C67.271 13.8881 67.004 13.5751 66.654 13.5751ZM62.089 19.9491C61.773 21.8201 60.288 23.0761 58.394 23.0761C57.443 23.0761 56.683 22.7711 56.195 22.1931C55.711 21.6191 55.527 20.8021 55.681 19.8921C55.976 18.0371 57.486 16.7401 59.351 16.7401C60.281 16.7401 61.037 17.0491 61.535 17.6321C62.034 18.2211 62.232 19.0431 62.089 19.9491Z" fill="#96B0FF"/>
<path d="M84.096 13.5752H80.805C80.491 13.5752 80.196 13.7312 80.018 13.9922L75.479 20.6782L73.555 14.2532C73.434 13.8512 73.063 13.5752 72.643 13.5752H69.409C69.016 13.5752 68.743 13.9592 68.868 14.3292L72.493 24.9672L69.085 29.7782C68.817 30.1572 69.087 30.6782 69.55 30.6782H72.837C73.149 30.6782 73.441 30.5262 73.618 30.2702L84.564 14.4702C84.826 14.0922 84.557 13.5752 84.096 13.5752Z" fill="#96B0FF"/>
<path d="M94.9921 7.24902H88.1521C87.6851 7.24902 87.2871 7.58902 87.2141 8.05102L84.4481 25.588C84.3931 25.934 84.6611 26.246 85.0101 26.246H88.5201C88.8461 26.246 89.1251 26.008 89.1761 25.684L89.9611 20.713C90.0331 20.25 90.4321 19.91 90.8991 19.91H93.0631C97.5691 19.91 100.168 17.73 100.848 13.41C101.155 11.52 100.86 10.035 99.9751 8.99502C99.0041 7.85302 97.2811 7.24902 94.9921 7.24902ZM95.7811 13.654C95.4081 16.108 93.5331 16.108 91.7191 16.108H90.6881L91.4131 11.525C91.4561 11.248 91.6941 11.044 91.9751 11.044H92.4481C93.6821 11.044 94.8481 11.044 95.4501 11.748C95.8091 12.168 95.9181 12.792 95.7811 13.654Z" fill="#8DDBFF"/>
<path d="M115.434 13.5751H112.161C111.88 13.5751 111.641 13.7791 111.599 14.0561L111.454 14.9721L111.224 14.6401C110.515 13.6111 108.935 13.2671 107.357 13.2671C103.738 13.2671 100.648 16.0081 100.046 19.8531C99.7339 21.7711 100.177 23.6051 101.265 24.8841C102.265 26.0601 103.691 26.5501 105.39 26.5501C108.306 26.5501 109.923 24.6751 109.923 24.6751L109.777 25.5851C109.722 25.9331 109.99 26.2451 110.341 26.2451H113.29C113.757 26.2451 114.155 25.9051 114.228 25.4421L115.999 14.2331C116.053 13.8881 115.785 13.5751 115.434 13.5751ZM110.869 19.9491C110.555 21.8201 109.068 23.0761 107.174 23.0761C106.225 23.0761 105.463 22.7711 104.975 22.1931C104.491 21.6191 104.309 20.8021 104.461 19.8921C104.758 18.0371 106.266 16.7401 108.131 16.7401C109.061 16.7401 109.817 17.0491 110.315 17.6321C110.816 18.2211 111.014 19.0431 110.869 19.9491Z" fill="#8DDBFF"/>
<path d="M119.295 7.73005L116.488 25.588C116.433 25.934 116.701 26.246 117.05 26.246H119.872C120.341 26.246 120.739 25.906 120.811 25.443L123.579 7.90705C123.634 7.56105 123.366 7.24805 123.017 7.24805H119.857C119.578 7.24905 119.338 7.45305 119.295 7.73005Z" fill="#8DDBFF"/>
<path d="M7.26604 29.6539L7.78904 26.3319L6.62404 26.3049H1.06104L4.92704 1.79193C4.93904 1.71793 4.97804 1.64893 5.03504 1.59993C5.09204 1.55093 5.16504 1.52393 5.24104 1.52393H14.621C17.735 1.52393 19.884 2.17193 21.006 3.45093C21.532 4.05093 21.867 4.67793 22.029 5.36793C22.199 6.09193 22.202 6.95693 22.036 8.01193L22.024 8.08893V8.76493L22.55 9.06293C22.993 9.29793 23.345 9.56693 23.615 9.87493C24.065 10.3879 24.356 11.0399 24.479 11.8129C24.606 12.6079 24.564 13.5539 24.356 14.6249C24.116 15.8569 23.728 16.9299 23.204 17.8079C22.722 18.6169 22.108 19.2879 21.379 19.8079C20.683 20.3019 19.856 20.6769 18.921 20.9169C18.015 21.1529 16.982 21.2719 15.849 21.2719H15.119C14.597 21.2719 14.09 21.4599 13.692 21.7969C13.293 22.1409 13.029 22.6109 12.948 23.1249L12.893 23.4239L11.969 29.2789L11.927 29.4939C11.916 29.5619 11.897 29.5959 11.869 29.6189C11.844 29.6399 11.808 29.6539 11.773 29.6539H7.26604Z" fill="#96B0FF"/>
<path d="M23.0481 8.16699C23.0201 8.34599 22.9881 8.52899 22.9521 8.71699C21.7151 15.068 17.4831 17.262 12.0781 17.262H9.32614C8.66514 17.262 8.10814 17.742 8.00514 18.394L6.59614 27.33L6.19714 29.863C6.13014 30.291 6.46014 30.677 6.89214 30.677H11.7731C12.3511 30.677 12.8421 30.257 12.9331 29.687L12.9811 29.439L13.9001 23.607L13.9591 23.287C14.0491 22.715 14.5411 22.295 15.1191 22.295H15.8491C20.5781 22.295 24.2801 20.375 25.3621 14.819C25.8141 12.498 25.5801 10.56 24.3841 9.19699C24.0221 8.78599 23.5731 8.44499 23.0481 8.16699Z" fill="#8DDBFF"/>
<path d="M21.7539 7.65103C21.5649 7.59603 21.3699 7.54603 21.1699 7.50103C20.9689 7.45703 20.7629 7.41803 20.5509 7.38403C19.8089 7.26403 18.9959 7.20703 18.1249 7.20703H10.7729C10.5919 7.20703 10.4199 7.24803 10.2659 7.32203C9.92688 7.48503 9.67488 7.80603 9.61388 8.19903L8.04988 18.105L8.00488 18.394C8.10788 17.742 8.66488 17.262 9.32588 17.262H12.0779C17.4829 17.262 21.7149 15.067 22.9519 8.71703C22.9889 8.52903 23.0199 8.34603 23.0479 8.16703C22.7349 8.00103 22.3959 7.85903 22.0309 7.73803C21.9409 7.70803 21.8479 7.67903 21.7539 7.65103Z" fill="#5E6CB4"/>
<path d="M9.61399 8.199C9.67499 7.806 9.92699 7.485 10.266 7.323C10.421 7.249 10.592 7.208 10.773 7.208H18.125C18.996 7.208 19.809 7.265 20.551 7.385C20.763 7.419 20.969 7.458 21.17 7.502C21.37 7.547 21.565 7.597 21.754 7.652C21.848 7.68 21.941 7.709 22.032 7.738C22.397 7.859 22.736 8.002 23.049 8.167C23.417 5.82 23.046 4.222 21.777 2.775C20.378 1.182 17.853 0.5 14.622 0.5H5.24199C4.58199 0.5 4.01899 0.98 3.91699 1.633L0.00998882 26.398C-0.0670112 26.888 0.310989 27.33 0.804989 27.33H6.59599L8.04999 18.105L9.61399 8.199Z" fill="#96B0FF"/>
</g>
<defs>
<clipPath id="clip0_525_5892">
<rect width="124" height="33" fill="white" transform="translate(0 0.5)"/>
</clipPath>
</defs>
</svg>
