<svg width="121" height="30" viewBox="0 0 121 30" fill="none" xmlns="http://www.w3.org/2000/svg">
<g clip-path="url(#clip0_525_5927)">
<path fill-rule="evenodd" clip-rule="evenodd" d="M120.862 10.8565C120.862 12.7581 119.312 14.2999 117.4 14.2999C115.488 14.2999 113.938 12.7581 113.938 10.8565C113.938 8.95484 115.488 7.41309 117.4 7.41309C119.312 7.41309 120.862 8.95484 120.862 10.8565Z" fill="#7887E6"/>
<path fill-rule="evenodd" clip-rule="evenodd" d="M120.862 21.6328C120.862 23.5345 119.312 25.0762 117.4 25.0762C115.488 25.0762 113.938 23.5345 113.938 21.6328C113.938 19.7312 115.488 18.1895 117.4 18.1895C119.312 18.1895 120.862 19.7312 120.862 21.6328Z" fill="#FF5073"/>
<path fill-rule="evenodd" clip-rule="evenodd" d="M8.21285 12.3734H5.45372V5.82602H8.21285C10.1761 5.82602 11.2726 7.1807 11.2726 9.1332C11.2726 11.2179 10.0421 12.3734 8.21285 12.3734ZM8.81271 1.85611H0V24.6791H5.45372V16.3433H8.81271C13.2345 16.3433 16.5612 13.5987 16.5612 8.93401C16.5612 4.89944 14.0659 1.85611 8.81271 1.85611ZM45.2389 7.8099L41.58 17.8898L37.379 7.8099H31.9322L39.1057 23.8852L36.8681 29.4118H41.9313L50.5253 7.8099H45.2389ZM84.5415 7.11509V7.8099H81.7145V11.4152H84.5415V24.6791H89.8289V11.4152H93.4871V7.8099H89.8289V6.91684C89.8289 5.42834 90.4276 4.36984 92.057 4.36984C92.556 4.36984 93.1879 4.4692 93.62 4.60136V0.830648C92.8882 0.632164 92.057 0.5 91.0927 0.5C86.8029 0.5 84.5415 3.11285 84.5415 7.11509ZM74.8699 20.9745C74.3711 21.3384 73.6064 21.6362 72.7749 21.6362C71.4447 21.6362 70.5468 20.8754 70.5468 19.6514C70.5468 18.2623 71.6474 16.9033 74.8699 17.4353V20.9745ZM73.8389 7.41317C70.5468 7.41317 67.9529 8.43863 66.3567 9.43081L67.82 12.4409C68.7843 12.0109 70.8128 11.25 72.5422 11.25C73.7725 11.25 74.8699 11.68 74.8699 12.97V14.0946C67.5358 13.5757 65.4277 16.7849 65.4277 19.7486C65.4277 22.6448 67.8929 25.0761 71.1376 25.0761C72.4179 25.0761 73.8071 24.5947 74.8699 23.9313V24.6791H80.1908V12.937C80.1908 9.1332 77.7631 7.41317 73.8389 7.41317ZM26.4835 20.9745C25.985 21.3384 25.22 21.6362 24.3886 21.6362C23.0584 21.6362 22.1605 20.8754 22.1605 19.6514C22.1605 18.2623 23.261 16.9033 26.4835 17.4353V20.9745ZM25.2542 7.41317C21.9619 7.41317 19.3681 8.43863 17.7717 9.43081L19.235 12.4409C20.1993 12.0109 22.2281 11.25 23.9572 11.25C25.1877 11.25 26.2852 11.68 26.2852 12.97V14.0946C18.9509 13.5757 16.843 16.7849 16.843 19.7486C16.843 22.6448 19.3079 25.0761 22.5527 25.0761C23.8332 25.0761 25.2222 24.5947 26.2852 23.9313V24.6791H31.606V12.937C31.606 9.1332 29.1784 7.41317 25.2542 7.41317ZM55.9996 12.573C55.9996 11.7793 56.7976 11.283 58.1278 11.283C59.5244 11.283 60.9875 11.7793 62.052 12.2424L63.5483 8.76928C62.1516 8.0747 60.0232 7.41317 57.8618 7.41317C53.9044 7.41317 50.712 9.19929 50.712 12.7715C50.712 18.3947 58.693 17.3692 58.693 19.8499C58.693 20.776 57.7619 21.239 56.1989 21.239C54.6027 21.239 53.0729 20.7099 51.8759 20.1145L50.1797 23.5215C52.1751 24.5797 54.5031 25.0761 56.6647 25.0761C60.5222 25.0761 63.8475 23.0915 63.8475 19.4529C63.8475 13.8961 55.9996 14.8222 55.9996 12.573ZM102.283 11.1178C103.746 11.1178 104.91 12.2754 105.11 14.5246H99.4564C99.6557 12.2754 100.82 11.1178 102.283 11.1178ZM110.483 17.3031V15.9853C110.483 11.0386 107.005 7.41317 102.283 7.41317C97.5607 7.41317 93.9027 11.1508 93.9027 16.344C93.9027 21.669 97.3614 25.0761 102.882 25.0761C104.421 25.0761 107.465 24.7996 109.812 23.1835L108.328 19.9043C106.738 20.8019 105.125 21.206 103.68 21.206C103.554 21.206 103.431 21.2012 103.309 21.1944C103.281 21.1927 103.253 21.191 103.226 21.1891C103.11 21.1808 102.996 21.1696 102.884 21.1547C102.858 21.1513 102.834 21.1468 102.808 21.1432C102.717 21.1297 102.627 21.1138 102.539 21.0957C102.508 21.0893 102.476 21.0838 102.446 21.0769C102.355 21.0565 102.266 21.0322 102.178 21.0066C102.13 20.9925 102.083 20.9783 102.037 20.9631C101.974 20.9424 101.912 20.9196 101.85 20.896C101.781 20.8689 101.712 20.8406 101.646 20.8105C101.626 20.8014 101.607 20.7919 101.587 20.7826C101.479 20.7313 101.375 20.6764 101.276 20.6172C101.273 20.6155 101.271 20.6136 101.268 20.612C101.047 20.4786 100.849 20.326 100.673 20.157C100.67 20.1544 100.668 20.152 100.665 20.1494C100.592 20.0795 100.524 20.0063 100.458 19.931C100.433 19.9017 100.408 19.8725 100.383 19.842C100.345 19.7955 100.309 19.7482 100.274 19.7001C100.214 19.6179 100.156 19.5345 100.102 19.4453C100.101 19.4427 100.099 19.4403 100.097 19.4377C99.762 18.8767 99.5393 18.1705 99.4564 17.3034V17.3031H110.483Z" fill="#DFCFFF"/>
</g>
<defs>
<clipPath id="clip0_525_5927">
<rect width="121" height="29" fill="white" transform="translate(0 0.5)"/>
</clipPath>
</defs>
</svg>
