<svg width="74" height="32" viewBox="0 0 74 32" fill="none" xmlns="http://www.w3.org/2000/svg">
<path fill-rule="evenodd" clip-rule="evenodd" d="M73.9232 16.4448C73.9232 11.1523 71.3796 6.97607 66.518 6.97607C61.636 6.97607 58.6821 11.1523 58.6821 16.4035C58.6821 22.6264 62.1693 25.7689 67.1744 25.7689C69.6155 25.7689 71.4616 25.2107 72.8565 24.4251V20.2902C71.4616 20.9932 69.8616 21.4273 67.8308 21.4273C65.8411 21.4273 64.077 20.7244 63.8514 18.2848H73.8821C73.8821 18.0161 73.9232 16.941 73.9232 16.4448ZM63.7898 14.4808C63.7898 12.1446 65.2052 11.1729 66.4975 11.1729C67.7488 11.1729 69.0821 12.1446 69.0821 14.4808H63.7898Z" fill="#C0BCFF"/>
<path fill-rule="evenodd" clip-rule="evenodd" d="M50.7644 6.97607C48.7541 6.97607 47.4618 7.92709 46.7438 8.58866L46.4772 7.30686H41.9644V31.4129L47.0926 30.3172L47.1131 24.4664C47.8515 25.0039 48.9387 25.7689 50.7438 25.7689C54.4156 25.7689 57.7592 22.7918 57.7592 16.2381C57.7387 10.2426 54.3541 6.97607 50.7644 6.97607ZM49.5336 21.2206C48.3233 21.2206 47.6054 20.7864 47.1131 20.2489L47.0926 12.5788C47.6259 11.9792 48.3644 11.5657 49.5336 11.5657C51.4003 11.5657 52.6926 13.6745 52.6926 16.3828C52.6926 19.1532 51.4208 21.2206 49.5336 21.2206Z" fill="#C0BCFF"/>
<path fill-rule="evenodd" clip-rule="evenodd" d="M34.9077 5.75613L40.0564 4.63972V0.442871L34.9077 1.5386V5.75613Z" fill="#C0BCFF"/>
<path d="M40.0564 7.32715H34.9077V25.417H40.0564V7.32715Z" fill="#C0BCFF"/>
<path fill-rule="evenodd" clip-rule="evenodd" d="M29.3898 8.85736L29.0616 7.32747H24.6309V25.4174H29.7591V13.1576C30.9693 11.5657 33.0206 11.8551 33.6565 12.0825V7.32747C33.0001 7.07938 30.6001 6.62455 29.3898 8.85736Z" fill="#C0BCFF"/>
<path fill-rule="evenodd" clip-rule="evenodd" d="M19.1335 2.84131L14.1284 3.91636L14.1079 20.4764C14.1079 23.5361 16.3848 25.7896 19.4207 25.7896C21.1028 25.7896 22.3336 25.4795 23.0105 25.1074V20.9105C22.3541 21.1793 19.113 22.1303 19.113 19.0705V11.7312H23.0105V7.3276H19.113L19.1335 2.84131Z" fill="#C0BCFF"/>
<path fill-rule="evenodd" clip-rule="evenodd" d="M5.26689 12.5788C5.26689 11.7725 5.9233 11.4624 7.01048 11.4624C8.56946 11.4624 10.5387 11.9379 12.0977 12.7855V7.92709C10.3951 7.24484 8.71305 6.97607 7.01048 6.97607C2.84638 6.97607 0.0771484 9.16754 0.0771484 12.8269C0.0771484 18.5329 7.87202 17.6233 7.87202 20.0835C7.87202 21.0345 7.05151 21.3446 5.90279 21.3446C4.20023 21.3446 2.02587 20.6417 0.302789 19.6907V24.6111C2.21048 25.4381 4.13869 25.7896 5.90279 25.7896C10.1695 25.7896 13.1028 23.6601 13.1028 19.9594C13.0823 13.7985 5.26689 14.8943 5.26689 12.5788Z" fill="#C0BCFF"/>
</svg>
