<svg width="120" height="120" viewBox="0 0 120 120" fill="none" xmlns="http://www.w3.org/2000/svg">
<path d="M67 26L60 4.5L53 26L49 17L43.3124 30.7449C43.1062 31.2434 43 31.7777 43 32.3172C43 33.6822 43.6774 34.9582 44.808 35.7231L60 46L75.2288 35.6982C76.3364 34.9489 77 33.6988 77 32.3616C77 31.7936 76.8799 31.2321 76.6476 30.7138L70.5 17L67 26Z" fill="#FC485A"/>
<path fill-rule="evenodd" clip-rule="evenodd" d="M98.7759 76.3663L79.9556 74.6021L88.2856 91.5705L87.5577 79.8472L98.7759 76.3663ZM107.619 84.4803L92.7206 82.7746L99.6037 96.0968L98.8193 86.9824L107.619 84.4803ZM103.614 90.2869L112.653 91.1651L107.273 92.8116L107.644 98.4254L103.614 90.2869Z" fill="#FC485A"/>
<path fill-rule="evenodd" clip-rule="evenodd" d="M21.3194 76.3663L40.1396 74.6021L31.8096 91.5705L32.5375 79.8472L21.3194 76.3663ZM12.4759 84.4803L27.3738 82.7746L20.4908 96.0968L21.2751 86.9824L12.4759 84.4803ZM16.4815 90.287L7.44255 91.1652L12.8223 92.8117L12.4518 98.4255L16.4815 90.287Z" fill="#FC485A"/>
<path d="M108 63.9999C108 42.4802 93.8385 24.268 74.3264 18.1743L77.5 25.8082C91.9587 32.4443 102 47.0495 102 63.9999C102 66.7355 101.738 69.4101 101.239 71.9999L106.219 76.9999C107.379 72.8654 108 68.5052 108 63.9999Z" fill="#FC485A"/>
<path d="M45.6736 18.1743C26.1615 24.268 12 42.4802 12 63.9999C12 68.5052 12.6207 72.8654 13.7812 76.9999L18.761 71.9999C18.2615 69.4101 18 66.7355 18 63.9999C18 47.0495 28.0413 32.4443 42.5 25.8082L45.6736 18.1743Z" fill="#FC485A"/>
<path d="M60 106C70.2811 106 79.6994 102.306 87 96.1726L93.5 98.3765C84.8508 106.807 73.0319 112 60 112C46.9681 112 35.1492 106.807 26.5 98.3765L33 96.1726C40.3006 102.306 49.7189 106 60 106Z" fill="#FC485A"/>
<path d="M77.4615 46L63.7009 55.4359H70.7778L59.7692 73.5214L48.7607 55.4359H55.8376L42.0769 46L35 52.2906L59.7692 92L84.5385 52.2906L77.4615 46Z" fill="#FC485A"/>
</svg>
