<svg width="120" height="120" viewBox="0 0 120 120" fill="none" xmlns="http://www.w3.org/2000/svg">
<path d="M76.5718 59.0136C79.6759 54.3564 76.5718 49.7005 71.9147 49.7005C65.7064 49.7005 64.1533 49.7005 64.1533 54.3576C64.1546 60.5653 71.9147 66.7748 76.5718 59.0134V59.0136Z" fill="#FC485A"/>
<path d="M56.3928 72.9835C57.9452 72.9835 57.9452 71.4312 59.4968 71.4312C61.0492 71.4312 61.0492 72.9835 62.6009 72.9835C65.705 72.9835 62.6009 68.3264 62.6009 66.7752C62.6009 65.2235 61.0492 62.1181 59.4968 62.1181C57.9445 62.1181 56.3928 65.2222 56.3928 66.7752C56.3928 68.3276 53.2887 72.9835 56.3928 72.9835Z" fill="#FC485A"/>
<path d="M54.8399 54.3569C54.8399 49.6998 53.2875 49.6998 47.0785 49.6998C42.4214 49.6998 39.3172 54.3569 42.4214 59.0128C47.0799 66.7754 54.8399 60.5659 54.8399 54.3571V54.3569Z" fill="#FC485A"/>
<path d="M93.6462 72.9835C104.512 74.5359 107.616 66.7752 104.512 63.6704C102.959 62.118 101.408 63.6704 101.408 57.4621C101.408 55.9097 96.7505 52.805 93.6462 54.358C90.5422 55.9104 88.9891 60.5664 87.4379 62.1194C86.9406 62.6167 86.4028 63.0741 85.8317 63.5043C85.8669 63.0661 85.8848 62.6047 85.8848 62.1194C85.8848 59.9254 85.6907 58.314 85.4401 56.9403C90.08 48.7042 96.1605 42.3138 88.9896 27.9709C81.2289 14 65.7065 14 59.4976 14C53.2888 14 37.7667 14 30.0057 27.9695C22.8348 42.3121 28.9154 48.703 33.5552 56.9389C33.3045 58.3125 33.1104 59.924 33.1104 62.1181C33.1104 62.6034 33.1284 63.0648 33.1636 63.5029C32.5925 63.0721 32.0553 62.6154 31.5574 62.1181C30.005 60.5657 28.4533 55.9097 25.349 54.3567C22.245 52.8043 17.5877 55.9091 17.5877 57.4607C17.5877 63.6691 16.0353 62.1179 14.4836 63.6691C11.3795 66.7731 14.4836 74.5345 25.349 72.9821C26.9014 72.9821 31.5574 76.0862 36.2145 79.1904L38.7709 81.1079C34.3018 84.0857 29.9452 86.9511 28.4533 86.9511C17.5878 85.3987 14.4838 93.1594 17.5878 96.2642C19.1402 97.8166 20.6919 96.2642 20.6919 102.473C20.6919 104.025 25.349 107.13 28.4533 105.577C31.5574 104.024 33.1104 99.3683 34.6616 97.8152C37.1581 95.3187 40.6577 93.8256 44.3535 91.7226C48.0972 94.4126 53.5655 96.2622 59.4966 96.2622C65.4276 96.2622 70.8959 94.4119 74.6396 91.7226C78.3361 93.8254 81.8357 95.3187 84.3315 97.8152C85.8839 99.3676 87.4356 104.024 90.5398 105.577C93.6439 107.129 98.3012 104.024 98.3012 102.473C98.3012 96.2642 99.8536 97.8154 101.405 96.2642C104.509 93.1601 101.405 85.3988 90.5398 86.9511C89.048 86.9511 84.6913 84.085 80.2223 81.1079L82.7786 79.1904C87.4378 76.0877 92.0944 72.9835 93.6462 72.9835ZM92.0945 63.6697C93.6469 60.5657 93.6469 57.4614 96.7516 59.0126C98.304 60.565 95.1992 63.6697 99.8557 65.2209C101.408 66.7733 101.408 69.8781 93.6474 68.325C90.5433 68.325 84.3343 72.9821 79.6779 76.0864L78.4606 76.6947C79.1553 74.8418 80.0469 73.0222 80.8394 71.4339C84.8649 68.9834 90.8745 64.8897 92.0945 63.6697ZM33.1124 31.0734C40.8724 18.6556 53.291 18.6556 59.4999 18.6556C65.7087 18.6556 78.1263 18.6556 85.8874 31.0727C90.5445 40.3858 85.8874 46.5953 84.335 49.6992C84.335 46.9496 86.7706 41.7638 85.1694 37.3788C84.7665 36.2754 83.6471 35.5848 82.7091 34.8779C81.5838 34.0299 79.9268 32.344 77.9053 29C74.0154 22.5656 79.6778 37.2821 79.6778 37.2821C82.7819 41.9392 79.6778 45.0435 79.6778 49.6992C79.6778 57.4606 81.2302 57.4606 81.2302 62.1164C81.2302 66.7721 78.1262 68.3247 73.4689 69.8777C68.8117 71.4301 68.8117 72.9818 68.8117 76.0861C65.7077 77.6384 64.1546 77.6384 59.4987 77.6384C54.8427 77.6384 53.2904 77.6384 50.1856 76.0861C50.1856 72.982 50.1856 71.4289 45.5285 69.8777C40.8713 68.3253 37.7671 66.7737 37.7671 62.1164C37.7671 57.4592 39.3195 57.4592 39.3195 49.6992C39.3195 45.0421 36.2154 41.9379 39.3195 37.2821C39.3195 37.2821 45.5285 23 41.001 29C38.5604 32.2343 36.9092 33.9372 35.9055 34.8199C35.149 35.4851 34.32 36.1613 33.9384 37.0936C32.1195 41.5373 34.6624 46.8897 34.6624 49.6992C33.114 46.5945 28.4568 40.3861 33.114 31.0727L33.1124 31.0734ZM25.351 68.3264C17.5896 69.8788 17.5896 66.774 19.1427 65.2223C23.7998 63.6699 20.6951 60.5652 22.2467 59.014C25.3508 57.4616 25.3508 60.5664 26.9039 63.6711C28.1239 64.8911 34.1334 68.9838 38.1589 71.4364C38.9521 73.0253 39.8429 74.8449 40.5378 76.6972L39.3205 76.0889C34.664 72.9835 28.4551 68.3264 25.351 68.3264ZM30.0068 96.2661C28.4544 99.3701 28.4544 102.474 25.3496 100.923C23.7972 99.3708 26.902 96.2661 22.2456 94.7149C20.6932 93.1625 20.6932 90.0578 28.4539 91.6108C30.9636 91.6108 35.5011 88.5678 39.6092 85.7616C39.8997 86.7349 40.4043 87.691 41.0911 88.6065C37.0688 91.0677 31.2094 95.064 30.0068 96.2661ZM43.9763 83.8489C43.9763 80.7449 45.5287 79.1918 43.9763 76.0876C43.3959 74.9254 43.0315 73.982 42.8048 73.1736C45.5266 74.5372 45.5287 74.6023 45.5287 76.0876C45.5287 78.6678 46.9614 80.2933 49.8216 81.2315C48.9334 82.865 50.3355 85.4006 51.7384 85.4006C53.2908 85.4006 53.2907 83.8482 53.2907 82.2966V81.9675C53.7914 82.0313 54.3153 82.0858 54.8631 82.1303C54.8431 82.5585 54.8418 83.1156 54.8418 83.8476C54.8418 85.4 54.8418 86.9517 56.3942 86.9517C57.9466 86.9517 57.9466 85.3993 57.9466 82.2946V82.2786C58.4499 82.2893 58.9658 82.2946 59.499 82.2946C59.499 83.847 59.499 86.9517 61.0514 86.9517C62.4276 86.9517 63.8018 85.7291 63.0139 82.2054C63.6848 82.1682 64.3263 82.1196 64.9326 82.0565C64.9219 84.208 65.6978 86.1804 67.2602 85.3993C69.5048 84.2778 69.3138 83.1548 68.4509 81.4456C71.7957 80.5508 73.4691 78.876 73.4691 76.0851C73.4691 74.5992 73.4711 74.5347 76.1929 73.1711C75.9649 73.9796 75.6019 74.9237 75.0215 76.0851C73.4691 79.1892 75.0215 80.7422 75.0215 83.8465C75.0228 86.9512 67.2601 91.609 59.4989 91.609C51.7377 91.609 43.9763 86.9532 43.9763 83.8489ZM96.7513 94.7144C92.0942 96.2668 95.1989 99.3715 93.6472 100.923C90.5431 102.475 90.5431 99.3703 88.9901 96.2656C87.7874 95.0629 81.9282 91.0672 77.9053 88.6053C78.5927 87.6891 79.096 86.7324 79.3872 85.7604C83.4939 88.5667 88.0327 91.6096 90.5425 91.6096C98.3043 90.0579 98.3043 93.162 96.7513 94.7144Z" fill="#FC485A"/>
</svg>
