<svg width="120" height="120" viewBox="0 0 120 120" fill="none" xmlns="http://www.w3.org/2000/svg">
<path d="M99.2581 15.294C103.91 34.3483 99.4182 41.8611 87.1076 53.3333C96.7268 69.8504 95.7142 92.8742 72.4258 103.886C84.0133 103.533 90.4599 103.065 100.777 96.3778C95.565 97.8912 93.0637 97.952 89.1327 96.3778C99.1097 94.1154 104.178 92.4238 109.384 86.3675C103.755 89.6056 100.766 90.26 95.7142 89.8711C105.766 85.1424 110.711 81.8215 114.952 71.352C109.042 78.1126 105.58 79.6169 99.2581 80.3613C111.263 71.5903 116.069 65.2979 116.471 48.3282C114.053 57.7744 111.858 61.0447 106.852 64.3447C112.734 51.4012 114.835 44.1578 111.409 31.3106C110.508 44.7405 108.433 48.0313 103.815 51.3313C109.504 33.7868 108.882 25.7153 99.2581 15.294Z" fill="#FC485A"/>
<path d="M19.5661 15.294C14.914 34.3483 19.4061 41.8611 31.7166 53.3333C22.0975 69.8504 23.11 92.8742 46.3984 103.886C34.8109 103.533 28.3643 103.065 18.0473 96.3778C23.2593 97.8912 25.7605 97.952 29.6915 96.3778C19.7145 94.1154 14.6462 92.4238 9.44071 86.3675C15.0693 89.6056 18.0586 90.26 23.11 89.8711C13.0579 85.1424 8.11348 81.8215 3.87173 71.352C9.78189 78.1126 13.2445 79.6169 19.5661 80.3613C7.56077 71.5903 2.75546 65.2979 2.35292 48.3282C4.77121 57.7744 6.96631 61.0447 11.9721 64.3447C6.09013 51.4012 3.9896 44.1578 7.41563 31.3106C8.3167 44.7405 10.3914 48.0313 15.0097 51.3313C9.32048 33.7868 9.94199 25.7153 19.5661 15.294Z" fill="#FC485A"/>
<path fill-rule="evenodd" clip-rule="evenodd" d="M59.4107 97.3786C74.8907 97.3786 87.4397 84.8296 87.4397 69.3496C87.4397 62.57 85.0327 56.3526 81.0266 51.5053C86.2374 56.9066 89.4424 64.2557 89.4424 72.3535C89.4424 88.9392 75.9971 102.385 59.4114 102.385C42.8257 102.385 29.3804 88.9392 29.3804 72.3535C29.3804 64.2607 32.5815 56.9156 37.7866 51.5153C33.7855 56.3611 31.3817 62.5747 31.3817 69.3496C31.3817 84.8296 43.9307 97.3786 59.4107 97.3786Z" fill="#FC485A"/>
<path d="M65.3206 41.6788L59.9995 32.7357L54.8974 41.8407L42.9995 43.7662L51.7202 52.0455L49.884 63.9532L60.3588 58.1836L71.001 63.6294L68.8069 51.7838L76.9995 43.2415L65.3206 41.6788Z" fill="#FC485A"/>
<path d="M47.6689 83.2644H72.3309L66.4688 77.3431H62.7211L64.638 63.6925L60.4092 61.5289L55.4425 64.2643L57.2779 77.3431H53.531L47.6689 83.2644Z" fill="#FC485A"/>
</svg>
