<svg width="48" height="48" viewBox="0 0 48 48" fill="none" xmlns="http://www.w3.org/2000/svg">
<g clip-path="url(#clip0_59_5245)">
<path d="M40.6138 31.7267C41.0742 30.9857 41.4916 30.2189 41.8639 29.4299L36.9526 26.0698C36.3957 27.2082 35.7723 28.3128 35.0856 29.378C35.0192 29.4827 34.9943 29.6085 35.0159 29.7306C35.0375 29.8528 35.104 29.9624 35.2023 30.038C36.0073 30.6631 37.471 31.5345 39.8155 32.0632C39.967 32.0973 40.1254 32.0832 40.2685 32.0228C40.4117 31.9625 40.5324 31.8589 40.6138 31.7267Z" fill="url(#paint0_linear_59_5245)"/>
<path d="M13.0777 29.6335C12.3288 28.4883 11.6509 27.2981 11.0479 26.0698L6.13672 29.4299C6.52552 30.2536 6.96304 31.0534 7.44697 31.8251C7.52671 31.9536 7.64359 32.0548 7.78213 32.1154C7.92068 32.1761 8.07437 32.1932 8.22286 32.1645C10.5039 31.7198 12.0164 30.9477 12.9375 30.3153C13.0452 30.2424 13.1201 30.1303 13.1463 30.0029C13.1725 29.8755 13.1479 29.743 13.0777 29.6335Z" fill="url(#paint1_linear_59_5245)"/>
<path d="M37.755 33.9411C32.1168 32.3044 28.1082 27.2726 28.1082 27.2726H19.8951C19.8951 27.2726 15.8864 32.3044 10.2483 33.9411C6.50521 35.0279 5.22045 36.4619 4.77969 37.3032C4.68743 37.4779 4.66049 37.6798 4.7037 37.8725C4.74691 38.0653 4.85745 38.2363 5.01545 38.3549C11.3011 43.029 18.6345 45.5224 22.057 46.5107C23.3274 46.8777 24.6758 46.8777 25.9462 46.5107C29.3688 45.5224 36.7021 43.029 42.9878 38.3549C43.1458 38.2363 43.2563 38.0653 43.2996 37.8725C43.3428 37.6798 43.3158 37.4779 43.2236 37.3032C42.7828 36.4619 41.4981 35.0279 37.755 33.9411Z" fill="url(#paint2_linear_59_5245)"/>
<path d="M14.1001 14.0842C14.4941 17.6294 15.0193 20.7152 15.0193 20.7152C17.8425 25.7706 30.1571 25.7706 32.9803 20.7152C32.9803 20.7152 33.5056 17.6294 33.8995 14.0842H14.1001Z" fill="url(#paint3_linear_59_5245)"/>
<path d="M14.1001 14.0842C14.4941 17.6294 15.0193 20.7152 15.0193 20.7152C17.8425 25.7706 30.1571 25.7706 32.9803 20.7152C32.9803 20.7152 33.5056 17.6294 33.8995 14.0842H14.1001Z" fill="url(#paint4_linear_59_5245)"/>
<path d="M30.1719 22.7238C28.8208 23.3769 26.9977 23.2902 25.4299 22.8152C24.5497 22.5385 23.6047 22.5461 22.7291 22.837C21.1374 23.3835 19.2215 23.397 17.8292 22.7238C15.431 21.5646 15.02 20.7149 15.02 20.7149C15.2883 22.4909 15.7518 24.5008 16.1419 26.046C16.5561 27.7125 17.3393 29.2647 18.4338 30.5879C19.5282 31.9112 20.9059 32.9717 22.4651 33.6911C22.9583 33.9243 23.4724 34.1103 24.0005 34.2468C24.5286 34.1102 25.0426 33.9241 25.5357 33.691C27.095 32.9713 28.4728 31.9107 29.5673 30.5872C30.6618 29.2638 31.445 27.7114 31.8592 26.0447C32.2496 24.4997 32.7129 22.4906 32.9811 20.7153C32.9811 20.7149 32.5701 21.5646 30.1719 22.7238Z" fill="url(#paint5_linear_59_5245)"/>
<path d="M17.944 18.043L21.9719 20.1769C21.9719 20.1769 20.8795 21.7032 19.0512 20.9675C17.2513 20.2426 17.944 18.043 17.944 18.043Z" fill="#ECECEC"/>
<path d="M30.0557 18.043L26.0278 20.1769C26.0278 20.1769 27.1203 21.7032 28.9485 20.9675C30.7492 20.2426 30.0557 18.043 30.0557 18.043Z" fill="#ECECEC"/>
<path d="M14.25 15.3632C14.25 15.3632 16.6448 17.3773 23.9998 17.3773C31.568 17.3773 33.7181 15.6186 33.7181 15.6186C33.7799 15.1227 33.8412 14.6088 33.8995 14.0839H14.1001C14.1485 14.5189 14.1988 14.947 14.25 15.3632Z" fill="#455079"/>
<path d="M31.1586 3.68355C29.5819 2.19299 27.2919 1.00006 24.0003 1.00006C21.8609 1.00006 20.147 1.50557 18.7753 2.26768C18.7694 2.30694 18.2206 6.10931 25.6373 10.0731C25.6373 10.0731 31.3152 10.226 33.2296 6.54013C32.7216 5.46819 32.0195 4.49965 31.1586 3.68355Z" fill="url(#paint6_linear_59_5245)"/>
<path d="M31.1586 3.68355C29.5819 2.19299 27.2919 1.00006 24.0003 1.00006C21.8609 1.00006 20.147 1.50557 18.7753 2.26768C18.7694 2.30694 18.2206 6.10931 25.6373 10.0731C25.6373 10.0731 31.3152 10.226 33.2296 6.54013C32.7216 5.46819 32.0195 4.49965 31.1586 3.68355Z" fill="url(#paint7_linear_59_5245)"/>
<path d="M32.5659 7.51508C25.9874 6.85699 22.2222 3.037 20.8945 1.40411C20.1565 1.60734 19.4452 1.89721 18.7753 2.26768C18.7694 2.30694 18.2206 6.10931 25.6373 10.0731C25.6367 10.0727 30.2557 10.196 32.5659 7.51508Z" fill="#455079"/>
<path d="M18.7761 2.26678C18.0764 2.65491 17.4281 3.12923 16.8464 3.67865C15.236 5.2134 14.1965 7.25087 13.8989 9.45544L15.0173 11.6047C22.0762 14.006 31.2769 9.5282 31.2769 9.5282C23.8796 7.99854 20.062 3.92515 18.7761 2.26678Z" fill="url(#paint8_linear_59_5245)"/>
<path d="M18.7761 2.26678C18.0764 2.65491 17.4281 3.12923 16.8464 3.67865C15.236 5.2134 14.1965 7.25087 13.8989 9.45544L15.0173 11.6047C22.0762 14.006 31.2769 9.5282 31.2769 9.5282C23.8796 7.99854 20.062 3.92515 18.7761 2.26678Z" fill="url(#paint9_linear_59_5245)"/>
<path d="M33.2291 6.53979C32.998 6.05556 32.7274 5.59122 32.4199 5.15149C29.1774 6.9783 25.2106 7.49695 21.7974 7.50929C22.9794 8.50192 24.267 9.36157 25.6369 10.0727C25.6369 10.0727 31.3148 10.2256 33.2291 6.53979Z" fill="#455079"/>
<path d="M25.0376 7.33432C20.4386 7.8347 16.1041 7.13157 14.6325 6.84821C14.2718 7.6803 14.025 8.55729 13.8989 9.4554L15.0173 11.6047C22.0762 14.0059 31.2769 9.52816 31.2769 9.52816C29.1055 9.08975 27.0055 8.35139 25.0376 7.33432Z" fill="#455079"/>
<path d="M33.9017 14.0843L34.1362 12.0601C34.3578 10.1716 34.044 8.25886 33.2306 6.54019C27.6559 10.95 16.7393 9.84186 13.9014 9.46329C13.7802 10.3238 13.769 11.1963 13.868 12.0597L14.1024 14.084C14.1024 14.084 15.6997 15.9504 24.002 15.9504C32.3042 15.9504 33.9017 14.0843 33.9017 14.0843Z" fill="url(#paint10_linear_59_5245)"/>
<path d="M2.3343 7.12629C2.36806 7.11229 2.40236 7.09877 2.43719 7.08574C2.59816 7.02404 2.77072 6.9985 2.94265 7.01093C3.11459 7.02336 3.28168 7.07346 3.4321 7.15767C3.58251 7.24187 3.71257 7.35813 3.81304 7.49821C3.91351 7.63828 3.98195 7.79874 4.0135 7.96821C4.56036 10.9493 6.22529 18.9642 9.16698 24.3993L5.46463 26.6375C5.46463 26.6375 1.80138 20.7905 0.0662453 11.3497C-0.0956165 10.4925 0.0412162 9.60573 0.453933 8.83719C0.866651 8.06866 1.53032 7.4648 2.3343 7.12629Z" fill="url(#paint11_linear_59_5245)"/>
<path d="M2.30188 28.0631L11.9665 21.483C12.0449 21.4294 12.1342 21.3939 12.2279 21.3788C12.3217 21.3638 12.4176 21.3697 12.5089 21.396C12.6001 21.4224 12.6844 21.4686 12.7557 21.5314C12.827 21.5941 12.8835 21.6719 12.9212 21.759C13.3255 22.6995 13.5559 23.7054 13.6013 24.7281C13.607 24.8383 13.5845 24.9481 13.5361 25.0473C13.4877 25.1464 13.4149 25.2316 13.3245 25.2948L4.54141 31.3835C4.42138 31.4679 4.27598 31.5084 4.12962 31.4982C3.98326 31.4881 3.84485 31.4279 3.73763 31.3278C2.99231 30.6288 2.41763 29.7678 2.05795 28.8114C2.00923 28.6774 2.00678 28.5309 2.05099 28.3952C2.0952 28.2596 2.18352 28.1427 2.30188 28.0631Z" fill="url(#paint12_linear_59_5245)"/>
<path d="M2.30188 28.0631L11.9665 21.483C12.0449 21.4294 12.1342 21.3939 12.2279 21.3788C12.3217 21.3638 12.4176 21.3697 12.5089 21.396C12.6001 21.4224 12.6844 21.4686 12.7557 21.5314C12.827 21.5941 12.8835 21.6719 12.9212 21.759C13.3255 22.6995 13.5559 23.7054 13.6013 24.7281C13.607 24.8383 13.5845 24.9481 13.5361 25.0473C13.4877 25.1464 13.4149 25.2316 13.3245 25.2948L4.54141 31.3835C4.42138 31.4679 4.27598 31.5084 4.12962 31.4982C3.98326 31.4881 3.84485 31.4279 3.73763 31.3278C2.99231 30.6288 2.41763 29.7678 2.05795 28.8114C2.00923 28.6774 2.00678 28.5309 2.05099 28.3952C2.0952 28.2596 2.18352 28.1427 2.30188 28.0631Z" fill="url(#paint13_linear_59_5245)"/>
<path d="M2.30188 28.0631L11.9665 21.483C12.0449 21.4294 12.1342 21.3939 12.2279 21.3788C12.3217 21.3638 12.4176 21.3697 12.5089 21.396C12.6001 21.4224 12.6844 21.4686 12.7557 21.5314C12.827 21.5941 12.8835 21.6719 12.9212 21.759C13.3255 22.6995 13.5559 23.7054 13.6013 24.7281C13.607 24.8383 13.5845 24.9481 13.5361 25.0473C13.4877 25.1464 13.4149 25.2316 13.3245 25.2948L4.54141 31.3835C4.42138 31.4679 4.27598 31.5084 4.12962 31.4982C3.98326 31.4881 3.84485 31.4279 3.73763 31.3278C2.99231 30.6288 2.41763 29.7678 2.05795 28.8114C2.00923 28.6774 2.00678 28.5309 2.05099 28.3952C2.0952 28.2596 2.18352 28.1427 2.30188 28.0631Z" fill="url(#paint14_linear_59_5245)"/>
<path d="M45.6657 7.12629C45.6319 7.11229 45.5976 7.09877 45.5628 7.08574C45.4018 7.02404 45.2293 6.9985 45.0573 7.01093C44.8854 7.02336 44.7183 7.07346 44.5679 7.15767C44.4175 7.24187 44.2874 7.35813 44.1869 7.49821C44.0865 7.63828 44.018 7.79874 43.9865 7.96821C43.4396 10.9493 41.7747 18.9642 38.833 24.3993L42.5354 26.6375C42.5354 26.6375 46.198 20.7905 47.9331 11.3497C48.095 10.4926 47.9583 9.60586 47.5457 8.83734C47.1331 8.06881 46.4696 7.46491 45.6657 7.12629Z" fill="url(#paint15_linear_59_5245)"/>
<path d="M45.7011 28.0631L36.0366 21.483C35.9581 21.4294 35.8688 21.3939 35.7751 21.3788C35.6813 21.3638 35.5854 21.3697 35.4941 21.396C35.4029 21.4224 35.3186 21.4686 35.2473 21.5314C35.1761 21.5941 35.1195 21.6719 35.0818 21.759C34.6775 22.6995 34.4471 23.7054 34.4017 24.7281C34.3961 24.8383 34.4185 24.9481 34.4669 25.0473C34.5153 25.1464 34.5881 25.2316 34.6785 25.2948L43.4616 31.3835C43.5816 31.4679 43.727 31.5084 43.8734 31.4982C44.0198 31.4881 44.1582 31.4279 44.2654 31.3278C45.0107 30.6288 45.5854 29.7678 45.9451 28.8114C45.9938 28.6774 45.9962 28.5309 45.952 28.3952C45.9078 28.2596 45.8195 28.1427 45.7011 28.0631Z" fill="url(#paint16_linear_59_5245)"/>
<path d="M45.7011 28.0631L36.0366 21.483C35.9581 21.4294 35.8688 21.3939 35.7751 21.3788C35.6813 21.3638 35.5854 21.3697 35.4941 21.396C35.4029 21.4224 35.3186 21.4686 35.2473 21.5314C35.1761 21.5941 35.1195 21.6719 35.0818 21.759C34.6775 22.6995 34.4471 23.7054 34.4017 24.7281C34.3961 24.8383 34.4185 24.9481 34.4669 25.0473C34.5153 25.1464 34.5881 25.2316 34.6785 25.2948L43.4616 31.3835C43.5816 31.4679 43.727 31.5084 43.8734 31.4982C44.0198 31.4881 44.1582 31.4279 44.2654 31.3278C45.0107 30.6288 45.5854 29.7678 45.9451 28.8114C45.9938 28.6774 45.9962 28.5309 45.952 28.3952C45.9078 28.2596 45.8195 28.1427 45.7011 28.0631Z" fill="url(#paint17_linear_59_5245)"/>
<path d="M45.7011 28.0631L36.0366 21.483C35.9581 21.4294 35.8688 21.3939 35.7751 21.3788C35.6813 21.3638 35.5854 21.3697 35.4941 21.396C35.4029 21.4224 35.3186 21.4686 35.2473 21.5314C35.1761 21.5941 35.1195 21.6719 35.0818 21.759C34.6775 22.6995 34.4471 23.7054 34.4017 24.7281C34.3961 24.8383 34.4185 24.9481 34.4669 25.0473C34.5153 25.1464 34.5881 25.2316 34.6785 25.2948L43.4616 31.3835C43.5816 31.4679 43.727 31.5084 43.8734 31.4982C44.0198 31.4881 44.1582 31.4279 44.2654 31.3278C45.0107 30.6288 45.5854 29.7678 45.9451 28.8114C45.9938 28.6774 45.9962 28.5309 45.952 28.3952C45.9078 28.2596 45.8195 28.1427 45.7011 28.0631Z" fill="url(#paint18_linear_59_5245)"/>
<path d="M45.7011 28.0631L36.0366 21.483C35.9581 21.4294 35.8688 21.3939 35.7751 21.3788C35.6813 21.3638 35.5854 21.3697 35.4941 21.396C35.4029 21.4224 35.3186 21.4686 35.2473 21.5314C35.1761 21.5941 35.1195 21.6719 35.0818 21.759C34.6775 22.6995 34.4471 23.7054 34.4017 24.7281C34.3961 24.8383 34.4185 24.9481 34.4669 25.0473C34.5153 25.1464 34.5881 25.2316 34.6785 25.2948L43.4616 31.3835C43.5816 31.4679 43.727 31.5084 43.8734 31.4982C44.0198 31.4881 44.1582 31.4279 44.2654 31.3278C45.0107 30.6288 45.5854 29.7678 45.9451 28.8114C45.9938 28.6774 45.9962 28.5309 45.952 28.3952C45.9078 28.2596 45.8195 28.1427 45.7011 28.0631Z" fill="url(#paint19_linear_59_5245)"/>
</g>
<defs>
<linearGradient id="paint0_linear_59_5245" x1="38.4361" y1="24.2742" x2="38.4361" y2="30.6623" gradientUnits="userSpaceOnUse">
<stop stop-color="#667196"/>
<stop offset="1" stop-color="#3B466F"/>
</linearGradient>
<linearGradient id="paint1_linear_59_5245" x1="9.64662" y1="24.2453" x2="9.64662" y2="30.7362" gradientUnits="userSpaceOnUse">
<stop stop-color="#667196"/>
<stop offset="1" stop-color="#3B466F"/>
</linearGradient>
<linearGradient id="paint2_linear_59_5245" x1="24.0016" y1="56.6046" x2="24" y2="37" gradientUnits="userSpaceOnUse">
<stop stop-color="#6B7A96"/>
<stop offset="1" stop-color="#455779"/>
</linearGradient>
<linearGradient id="paint3_linear_59_5245" x1="23.9998" y1="16.4801" x2="23.9998" y2="24.4682" gradientUnits="userSpaceOnUse">
<stop stop-color="#FFAD7F"/>
<stop offset="1" stop-color="#CE7663"/>
</linearGradient>
<linearGradient id="paint4_linear_59_5245" x1="15.6424" y1="25.7701" x2="34.2334" y2="23.1823" gradientUnits="userSpaceOnUse">
<stop stop-color="#D33B4B"/>
<stop offset="1" stop-color="#F4495A"/>
</linearGradient>
<linearGradient id="paint5_linear_59_5245" x1="24.0005" y1="16.6731" x2="24.0005" y2="31.0525" gradientUnits="userSpaceOnUse">
<stop stop-color="#7A8AA9"/>
<stop offset="1" stop-color="#445379"/>
</linearGradient>
<linearGradient id="paint6_linear_59_5245" x1="25.9965" y1="-7.68454" x2="25.9965" y2="8.46513" gradientUnits="userSpaceOnUse">
<stop stop-color="#7A6CAB"/>
<stop offset="1" stop-color="#514F8E"/>
</linearGradient>
<linearGradient id="paint7_linear_59_5245" x1="25.9965" y1="-7.68454" x2="25.9965" y2="8.46513" gradientUnits="userSpaceOnUse">
<stop stop-color="#6C7AAB"/>
<stop offset="1" stop-color="#4F608E"/>
</linearGradient>
<linearGradient id="paint8_linear_59_5245" x1="22.5875" y1="-7.34805" x2="22.5875" y2="10.5315" gradientUnits="userSpaceOnUse">
<stop stop-color="#7A6CAB"/>
<stop offset="1" stop-color="#514F8E"/>
</linearGradient>
<linearGradient id="paint9_linear_59_5245" x1="22.5875" y1="-7.34805" x2="22.5875" y2="10.5315" gradientUnits="userSpaceOnUse">
<stop stop-color="#6C7AAB"/>
<stop offset="1" stop-color="#4F608E"/>
</linearGradient>
<linearGradient id="paint10_linear_59_5245" x1="24.0028" y1="-2.4663" x2="24.0028" y2="14.282" gradientUnits="userSpaceOnUse">
<stop stop-color="#6C7AAB"/>
<stop offset="1" stop-color="#4F608E"/>
</linearGradient>
<linearGradient id="paint11_linear_59_5245" x1="4.58349" y1="1.14472" x2="4.58349" y2="22.0038" gradientUnits="userSpaceOnUse">
<stop stop-color="#667196"/>
<stop offset="1" stop-color="#3B466F"/>
</linearGradient>
<linearGradient id="paint12_linear_59_5245" x1="7.81037" y1="35.384" x2="7.81037" y2="19.929" gradientUnits="userSpaceOnUse">
<stop stop-color="#FFAB4A"/>
<stop offset="1" stop-color="#FFE2BB"/>
</linearGradient>
<linearGradient id="paint13_linear_59_5245" x1="3.5" y1="18.5" x2="7.81083" y2="31.546" gradientUnits="userSpaceOnUse">
<stop stop-color="#EBF8FF"/>
<stop offset="0.5" stop-color="#B4DCFF"/>
<stop offset="1" stop-color="#9BA4FF"/>
</linearGradient>
<linearGradient id="paint14_linear_59_5245" x1="2.9218" y1="32.7275" x2="13.9309" y2="31.8051" gradientUnits="userSpaceOnUse">
<stop stop-color="#D33B4B"/>
<stop offset="1" stop-color="#F4495A"/>
</linearGradient>
<linearGradient id="paint15_linear_59_5245" x1="43.4162" y1="1.14472" x2="43.4162" y2="22.0038" gradientUnits="userSpaceOnUse">
<stop stop-color="#667196"/>
<stop offset="1" stop-color="#3B466F"/>
</linearGradient>
<linearGradient id="paint16_linear_59_5245" x1="40.1926" y1="35.384" x2="40.1926" y2="19.929" gradientUnits="userSpaceOnUse">
<stop stop-color="#FFAB4A"/>
<stop offset="1" stop-color="#FFE2BB"/>
</linearGradient>
<linearGradient id="paint17_linear_59_5245" x1="40.1922" y1="22.0869" x2="40.1922" y2="31.546" gradientUnits="userSpaceOnUse">
<stop stop-color="#9BA4FF"/>
<stop offset="0.5" stop-color="#B4DCFF"/>
<stop offset="1" stop-color="#EBF8FF"/>
</linearGradient>
<linearGradient id="paint18_linear_59_5245" x1="42.9995" y1="20" x2="37.4995" y2="30" gradientUnits="userSpaceOnUse">
<stop stop-color="#EBF8FF"/>
<stop offset="0.5" stop-color="#B4DCFF"/>
<stop offset="1" stop-color="#9BA4FF"/>
</linearGradient>
<linearGradient id="paint19_linear_59_5245" x1="35.3031" y1="32.7275" x2="46.3122" y2="31.8051" gradientUnits="userSpaceOnUse">
<stop stop-color="#D33B4B"/>
<stop offset="1" stop-color="#F4495A"/>
</linearGradient>
<clipPath id="clip0_59_5245">
<rect width="48" height="48" fill="white"/>
</clipPath>
</defs>
</svg>
