<svg width="48" height="48" viewBox="0 0 48 48" fill="none" xmlns="http://www.w3.org/2000/svg">
<path d="M5.69043 7.9881V27.2274C5.69043 40.3964 24 48 24 48L29.9484 35.1152C29.9484 35.1152 22.9671 9.64016 5.69043 7.9881Z" fill="url(#paint0_linear_59_5257)"/>
<path d="M5.69043 7.9881V27.2274C5.69043 40.3964 24 48 24 48L29.9484 35.1152C29.9484 35.1152 22.9671 9.64016 5.69043 7.9881Z" fill="url(#paint1_linear_59_5257)"/>
<path d="M11.32 13.3307H24V0.889404C18.132 7.88524 5.69043 7.9881 5.69043 7.9881L10.048 12.0378L11.32 13.3307Z" fill="url(#paint2_linear_59_5257)"/>
<path d="M11.32 13.3307H24V0.889404C18.132 7.88524 5.69043 7.9881 5.69043 7.9881L10.048 12.0378L11.32 13.3307Z" fill="url(#paint3_linear_59_5257)"/>
<path d="M24 0.889404V13.0373L37.952 12.0378L42.3095 7.9881C42.3095 7.9881 29.868 7.88524 24 0.889404Z" fill="url(#paint4_linear_59_5257)"/>
<path d="M42.3095 27.2274V7.9881L37.952 12.0378L24 42.527V48C24 48 42.3095 40.3964 42.3095 27.2274Z" fill="url(#paint5_linear_59_5257)"/>
<path d="M23.9998 6.62851C19.5284 11.9595 10.0479 12.0379 10.0479 12.0379V26.6981C10.0479 36.733 23.9998 42.5271 23.9998 42.5271C23.9998 42.5271 37.9518 36.733 37.9518 26.6981V12.0379C37.9518 12.0379 28.4712 11.9595 23.9998 6.62851Z" fill="url(#paint6_linear_59_5257)"/>
<defs>
<linearGradient id="paint0_linear_59_5257" x1="17.8194" y1="10.8173" x2="17.8194" y2="48.1826" gradientUnits="userSpaceOnUse">
<stop stop-color="#9BA4FF"/>
<stop offset="0.5" stop-color="#B4DCFF"/>
<stop offset="1" stop-color="#EBF8FF"/>
</linearGradient>
<linearGradient id="paint1_linear_59_5257" x1="17.8194" y1="10.8173" x2="17.8194" y2="48.1826" gradientUnits="userSpaceOnUse">
<stop stop-color="#FF9B9B"/>
<stop offset="0.5" stop-color="#FFB9B4"/>
<stop offset="1" stop-color="#FFEFEB"/>
</linearGradient>
<linearGradient id="paint2_linear_59_5257" x1="28.8484" y1="0.309195" x2="11.9756" y2="12.7804" gradientUnits="userSpaceOnUse">
<stop stop-color="#9BA4FF"/>
<stop offset="0.5" stop-color="#B4DCFF"/>
<stop offset="1" stop-color="#EBF8FF"/>
</linearGradient>
<linearGradient id="paint3_linear_59_5257" x1="40.7291" y1="8.56473" x2="4.40002" y2="7.12668" gradientUnits="userSpaceOnUse">
<stop stop-color="#FF9B9B"/>
<stop offset="0.5" stop-color="#FFBDB4"/>
<stop offset="1" stop-color="#FFF0EB"/>
</linearGradient>
<linearGradient id="paint4_linear_59_5257" x1="59.0387" y1="8.38373" x2="22.7124" y2="6.91107" gradientUnits="userSpaceOnUse">
<stop stop-color="#FF9B9B"/>
<stop offset="0.5" stop-color="#FFBDB4"/>
<stop offset="1" stop-color="#FFF0EB"/>
</linearGradient>
<linearGradient id="paint5_linear_59_5257" x1="33.1548" y1="10.8173" x2="33.1548" y2="48.1826" gradientUnits="userSpaceOnUse">
<stop stop-color="#FF9B9B"/>
<stop offset="0.5" stop-color="#FFB9B4"/>
<stop offset="1" stop-color="#FFEFEB"/>
</linearGradient>
<linearGradient id="paint6_linear_59_5257" x1="23.9998" y1="41.5092" x2="23.9998" y2="7.48931" gradientUnits="userSpaceOnUse">
<stop stop-color="#C78989"/>
<stop offset="1" stop-color="#965353"/>
</linearGradient>
</defs>
</svg>
