<svg width="120" height="120" viewBox="0 0 120 120" fill="none" xmlns="http://www.w3.org/2000/svg">
<path d="M67 26L60 4.5L53 26L49 17L43.3124 30.7449C43.1062 31.2434 43 31.7777 43 32.3172C43 33.6822 43.6774 34.9582 44.808 35.7231L60 46L75.2288 35.6982C76.3364 34.9489 77 33.6988 77 32.3616C77 31.7936 76.8799 31.2321 76.6476 30.7138L70.5 17L67 26Z" fill="#FC485A"/>
<path fill-rule="evenodd" clip-rule="evenodd" d="M87.5392 68.0616L89.8292 64.4632C90.1911 63.8944 91.0007 63.8394 91.4362 64.3541L112.559 89.3169L87.7563 69.3778C87.3591 69.0585 87.2656 68.4916 87.5392 68.0616ZM81.5374 79.6044L84.8616 74.0639C85.1898 73.517 85.9393 73.4129 86.404 73.8498L110.5 96.5L81.9181 80.9979C81.4176 80.7265 81.2444 80.0926 81.5374 79.6044ZM78.5255 85.286L76.9354 88.5594C76.6724 89.1008 76.9438 89.7501 77.5138 89.9434L106.97 99.93L79.9118 84.8495C79.4101 84.5698 78.7765 84.7694 78.5255 85.286Z" fill="#FC485A"/>
<path fill-rule="evenodd" clip-rule="evenodd" d="M31.8533 68.0616L29.5634 64.4632C29.2015 63.8944 28.3919 63.8394 27.9564 64.3541L6.83398 89.3169L31.6362 69.3778C32.0334 69.0585 32.1269 68.4916 31.8533 68.0616ZM37.8552 79.6044L34.5309 74.0639C34.2028 73.517 33.4533 73.4129 32.9885 73.8498L8.89258 96.5L37.4745 80.9979C37.975 80.7265 38.1481 80.0926 37.8552 79.6044ZM40.867 85.286L42.4572 88.5594C42.7202 89.1008 42.4488 89.7501 41.8788 89.9434L12.4221 99.93L39.4807 84.8495C39.9824 84.5698 40.6161 84.7694 40.867 85.286Z" fill="#FC485A"/>
<path d="M108 63.9999C108 42.4802 93.8385 24.268 74.3264 18.1743L77.5 25.8082C91.9587 32.4443 102 47.0495 102 63.9999C102 66.7355 101.738 69.4101 101.239 71.9999L106.219 76.9999C107.379 72.8654 108 68.5052 108 63.9999Z" fill="#FC485A"/>
<path d="M45.6736 18.1743C26.1615 24.268 12 42.4802 12 63.9999C12 68.5052 12.6207 72.8654 13.7812 76.9999L18.761 71.9999C18.2615 69.4101 18 66.7355 18 63.9999C18 47.0495 28.0413 32.4443 42.5 25.8082L45.6736 18.1743Z" fill="#FC485A"/>
<path d="M60 106C70.2811 106 79.6994 102.306 87 96.1726L93.5 98.3765C84.8508 106.807 73.0319 112 60 112C46.9681 112 35.1492 106.807 26.5 98.3765L33 96.1726C40.3006 102.306 49.7189 106 60 106Z" fill="#FC485A"/>
<path d="M44 54.2976H51.4057V78.9628H45.9724V59.506H44V54.2976Z" fill="#FC485A"/>
<path d="M66.6171 79C65.203 79 63.8633 78.752 62.598 78.256C61.3575 77.7599 60.2535 77.0035 59.2859 75.9866C58.3431 74.9449 57.5988 73.6429 57.053 72.0804C56.5072 70.4931 56.2343 68.6329 56.2343 66.5C56.2343 64.119 56.4948 62.1349 57.0158 60.5476C57.5368 58.9355 58.2563 57.6458 59.1742 56.6786C60.117 55.7113 61.221 55.0293 62.4863 54.6324C63.7516 54.2108 65.1286 54 66.6171 54C68.0313 54 69.3586 54.248 70.5991 54.744C71.8644 55.2401 72.9684 56.0089 73.9112 57.0506C74.8788 58.0675 75.6355 59.3695 76.1813 60.9568C76.7271 62.5193 77 64.3671 77 66.5C77 68.7073 76.7271 70.6047 76.1813 72.192C75.6355 73.7793 74.8788 75.0814 73.9112 76.0982C72.9436 77.0903 71.8396 77.8219 70.5991 78.2932C69.3586 78.7644 68.0313 79 66.6171 79ZM66.5799 73.8289C67.8204 73.8289 68.788 73.5064 69.4827 72.8616C70.1773 72.192 70.6611 71.2867 70.934 70.1458C71.2317 69.005 71.3806 67.7401 71.3806 66.3512C71.3806 64.9871 71.2317 63.7718 70.934 62.7054C70.6611 61.6389 70.1773 60.7956 69.4827 60.1756C68.788 59.5308 67.8204 59.2083 66.5799 59.2083C65.3643 59.2083 64.4091 59.5308 63.7144 60.1756C63.0197 60.8204 62.5359 61.6885 62.263 62.7798C61.9901 63.871 61.8537 65.0987 61.8537 66.4628C61.8537 67.8269 61.9901 69.067 62.263 70.183C62.5359 71.2991 63.0197 72.192 63.7144 72.8616C64.4091 73.5064 65.3643 73.8289 66.5799 73.8289Z" fill="#FC485A"/>
</svg>
