<svg width="120" height="120" viewBox="0 0 120 120" fill="none" xmlns="http://www.w3.org/2000/svg">
<path fill-rule="evenodd" clip-rule="evenodd" d="M59.0665 2L53.8665 11.5333L54.9205 13.1143L10.9473 57.4538L9.66664 56.6L0.133301 61.8L9.66664 67L11.2385 65.9521L59.5002 119L107.513 65.7862L109.333 67L118.867 61.8L109.333 56.6L107.774 57.6399L63.2267 13.0931L64.2665 11.5333L59.0665 2ZM61.6666 18.0332L59.0666 21.9332L56.4666 18.0332L46.9333 27.5666V33.1999L31.7666 48.7999L25.6999 49.2333L15.7333 58.7666L20.9333 61.7999L15.7333 64.4L59.0666 104.7L102.4 64.4L97.2 61.7999L102.4 58.7666L92.4333 49.2333L86.3667 48.7999L71.2 33.1999V27.5666L61.6666 18.0332Z" fill="#FC485A"/>
<path fill-rule="evenodd" clip-rule="evenodd" d="M45.3853 65.106L59.2204 40.4004L73.0556 65.106L59.2204 54.2355L45.3853 65.106ZM51.3121 74.9869L59.218 60.1635L67.1238 74.9869L59.218 68.4646L51.3121 74.9869ZM59.2149 74.9881L54.2738 83.8822L59.2149 79.9688L64.156 83.8822L59.2149 74.9881Z" fill="#FC485A"/>
</svg>
