<svg width="48" height="48" viewBox="0 0 48 48" fill="none" xmlns="http://www.w3.org/2000/svg">
<g clip-path="url(#clip0_59_5267)">
<g clip-path="url(#clip1_59_5267)">
<path d="M16.1037 17.381C16.7027 12.6784 16.7652 8.38635 14.1191 6.16432C14.1191 6.16432 11.8135 1.99453 6.22115 7.43974C5.2794 7.10511 4.29488 6.90596 3.29711 6.84826C0.600559 6.74838 -0.319589 10.4046 2.10316 11.5918C2.83256 11.9389 3.6021 12.1946 4.39425 12.3528C5.80483 12.6284 7.13227 13.2274 8.27217 14.1028C9.52113 15.0939 10.7378 16.5967 10.8313 18.7222L16.1037 17.381Z" fill="url(#paint0_linear_59_5267)"/>
<path d="M16.1037 17.381C16.7027 12.6784 16.7652 8.38635 14.1191 6.16432C14.1191 6.16432 11.8135 1.99453 6.22115 7.43974C5.2794 7.10511 4.29488 6.90596 3.29711 6.84826C0.600559 6.74838 -0.319589 10.4046 2.10316 11.5918C2.83256 11.9389 3.6021 12.1946 4.39425 12.3528C5.80483 12.6284 7.13227 13.2274 8.27217 14.1028C9.52113 15.0939 10.7378 16.5967 10.8313 18.7222L16.1037 17.381Z" fill="url(#paint1_linear_59_5267)"/>
<path d="M10.5289 10.2705C10.3429 9.09161 9.7706 6.99332 8.02227 5.92151C7.38248 6.37927 6.77991 6.88694 6.22021 7.43976C6.22021 7.43976 8.67443 8.63161 10.1364 10.443C10.1669 10.4812 10.2092 10.5083 10.2567 10.52C10.3041 10.5317 10.3542 10.5273 10.3989 10.5077C10.4437 10.488 10.4807 10.4541 10.5042 10.4112C10.5277 10.3683 10.5364 10.3189 10.5289 10.2705Z" fill="#485686"/>
<path fill-rule="evenodd" clip-rule="evenodd" d="M18.4475 16.2175C18.533 14.1651 19.0296 12.1476 19.9112 10.2856C20.0801 9.94325 20.1779 9.57021 20.1988 9.18901C20.2197 8.8078 20.1632 8.42632 20.0327 8.06753C19.9023 7.70874 19.7005 7.38007 19.4396 7.10134C19.1788 6.8226 18.8642 6.59955 18.5148 6.44563C17.438 5.9758 15.9865 5.72571 14.1191 6.16409L14.1192 6.16432C14.1357 6.20774 16.4322 12.2369 14.1027 16.2401C10.4652 16.8523 7.38461 18.8615 10.005 22.0583L20.7585 20.7401C20.7585 20.7401 22.0338 17.0353 18.4475 16.2175Z" fill="url(#paint2_linear_59_5267)"/>
<path d="M9.69901 21.6539C6.31723 23.691 2.63777 27.3724 1.36686 33.9592C1.15034 35.067 1.0955 36.2004 1.20406 37.324C8.37712 46.096 20.9775 39.8168 23.8407 28.3294C24.7934 25.6583 24.4388 22.9727 23.2076 20.2757C18.773 18.623 13.7952 19.1866 9.69901 21.6539Z" fill="url(#paint3_linear_59_5267)"/>
<path d="M24.2686 20.7188C26.2851 21.655 30.8566 23.4286 31.428 24.5714C35.047 29.1429 35.3137 39.6571 32.5709 42.8571C29.828 46.0571 24.3697 47.4611 21.412 47.7631H12.8308C7.24728 47.7631 2.39259 43.828 1.35256 38.3423C1.33621 38.2561 1.32089 38.1711 1.30658 38.0876C1.2635 37.8339 1.23236 37.5792 1.20703 37.3238C3.5383 39.5137 6.9104 40.7538 11.7538 39.2578C23.5645 35.6098 23.759 25.0198 23.2072 20.2776C23.5645 20.4108 23.919 20.5565 24.2686 20.7188Z" fill="url(#paint4_linear_59_5267)"/>
</g>
<path d="M35.2506 0C28.4161 0 22.8564 5.55964 22.8564 12.3941C22.8564 21.1262 33.8103 32.2727 34.277 32.7393C34.546 33.0083 34.8983 33.1428 35.2506 33.1428C35.6029 33.1428 35.9553 33.0083 36.2242 32.7393C36.6909 32.2727 47.6447 21.1262 47.6447 12.3941C47.6447 5.55964 42.0851 0 35.2506 0ZM35.2506 19.2798C31.454 19.2798 28.365 16.1907 28.365 12.3941C28.365 8.59758 31.454 5.50851 35.2506 5.50851C39.0471 5.50851 42.1362 8.59758 42.1362 12.3941C42.1362 16.1907 39.0471 19.2798 35.2506 19.2798Z" fill="url(#paint5_linear_59_5267)"/>
<path d="M35.2504 19.2797C31.4538 19.2797 28.3647 16.1906 28.3647 12.3941C28.3647 8.59753 31.4538 5.50845 35.2504 5.50845C39.0469 5.50845 42.136 8.59753 42.136 12.3941C42.136 16.1906 39.0469 19.2797 35.2504 19.2797Z" fill="url(#paint6_linear_59_5267)"/>
</g>
<defs>
<linearGradient id="paint0_linear_59_5267" x1="3.96443" y1="1.24928" x2="16.816" y2="25.2235" gradientUnits="userSpaceOnUse">
<stop stop-color="#FFA7B4"/>
<stop offset="1" stop-color="#ED7784"/>
</linearGradient>
<linearGradient id="paint1_linear_59_5267" x1="8.57181" y1="18.3229" x2="7.00098" y2="-4.49997" gradientUnits="userSpaceOnUse">
<stop stop-color="#889ABE"/>
<stop offset="1" stop-color="#5D6997"/>
</linearGradient>
<linearGradient id="paint2_linear_59_5267" x1="15.0028" y1="21.6012" x2="18.0005" y2="-5.49997" gradientUnits="userSpaceOnUse">
<stop offset="0.414583" stop-color="#485686"/>
<stop offset="1" stop-color="#61729E"/>
</linearGradient>
<linearGradient id="paint3_linear_59_5267" x1="12.7671" y1="12.7303" x2="12.7671" y2="36.2259" gradientUnits="userSpaceOnUse">
<stop stop-color="#96A4C0"/>
<stop offset="1" stop-color="#627197"/>
</linearGradient>
<linearGradient id="paint4_linear_59_5267" x1="17.8108" y1="12.0679" x2="17.8108" y2="41.2749" gradientUnits="userSpaceOnUse">
<stop stop-color="#7A8AA9"/>
<stop offset="1" stop-color="#445379"/>
</linearGradient>
<linearGradient id="paint5_linear_59_5267" x1="29.001" y1="56.5" x2="36.501" y2="-2.5" gradientUnits="userSpaceOnUse">
<stop stop-color="#D83E4E"/>
<stop offset="1" stop-color="#FF5163"/>
</linearGradient>
<linearGradient id="paint6_linear_59_5267" x1="32.0005" y1="19" x2="37.0005" y2="4.99997" gradientUnits="userSpaceOnUse">
<stop stop-color="#FFE5E7"/>
<stop offset="0.0001" stop-color="#FFE9EB"/>
<stop offset="1" stop-color="#FFE9EB"/>
</linearGradient>
<clipPath id="clip0_59_5267">
<rect width="48" height="48" fill="white"/>
</clipPath>
<clipPath id="clip1_59_5267">
<rect width="35.4286" height="43.4286" fill="white" transform="translate(0.000488281 4.5715)"/>
</clipPath>
</defs>
</svg>
