<svg width="48" height="48" viewBox="0 0 48 48" fill="none" xmlns="http://www.w3.org/2000/svg">
<g clip-path="url(#clip0_59_5247)">
<path d="M43.5044 15.804C40.9575 13.2571 37.5459 12.1025 34.2146 12.3393C32.888 12.4337 31.759 11.3858 31.759 10.0557H16.241C16.241 11.3858 15.1121 12.4337 13.7854 12.3393C10.4541 12.1025 7.04248 13.2571 4.49553 15.804C-0.165176 20.4647 -0.165176 28.0213 4.49553 32.682L15.146 43.3325C20.036 48.2225 27.9641 48.2225 32.854 43.3325L43.5044 32.682C48.1651 28.0213 48.1651 20.4648 43.5044 15.804Z" fill="url(#paint0_linear_59_5247)"/>
<path d="M43.5044 15.804C40.9575 13.2571 37.5459 12.1025 34.2146 12.3393C32.888 12.4337 31.759 11.3858 31.759 10.0557H16.241C16.241 11.3858 15.1121 12.4337 13.7854 12.3393C10.4541 12.1025 7.04248 13.2571 4.49553 15.804C-0.165176 20.4647 -0.165176 28.0213 4.49553 32.682L15.146 43.3325C20.036 48.2225 27.9641 48.2225 32.854 43.3325L43.5044 32.682C48.1651 28.0213 48.1651 20.4648 43.5044 15.804Z" fill="url(#paint1_linear_59_5247)"/>
<path d="M43.5045 15.8041C40.9575 13.2571 37.546 12.1025 34.2147 12.3394C32.8881 12.4337 31.7591 11.3858 31.7591 10.0558L16.2414 10.0557C16.2414 10.357 16.1837 10.6438 16.0781 10.9054C15.7399 11.7532 14.9092 12.3458 13.9522 12.3458C13.8963 12.3458 13.8413 12.3431 13.7853 12.3395C11.9977 12.2123 10.1865 12.4856 8.49805 13.1612H33.4598C35.8517 13.1612 38.1611 14.0844 39.8594 15.7688C39.8712 15.7806 39.883 15.7924 39.8948 15.8041C44.5555 20.4648 44.5555 28.0213 39.8948 32.6821L29.2444 43.3326C27.2597 45.3172 24.7746 46.4963 22.1952 46.87C25.971 47.4169 29.9487 46.2379 32.8541 43.3326L43.5045 32.6821C48.1652 28.0214 48.1652 20.4649 43.5045 15.8041Z" fill="url(#paint2_linear_59_5247)"/>
<path d="M43.5045 15.8041C40.9575 13.2571 37.546 12.1025 34.2147 12.3394C32.8881 12.4337 31.7591 11.3858 31.7591 10.0558L16.2414 10.0557C16.2414 10.357 16.1837 10.6438 16.0781 10.9054C15.7399 11.7532 14.9092 12.3458 13.9522 12.3458C13.8963 12.3458 13.8413 12.3431 13.7853 12.3395C11.9977 12.2123 10.1865 12.4856 8.49805 13.1612H33.4598C35.8517 13.1612 38.1611 14.0844 39.8594 15.7688C39.8712 15.7806 39.883 15.7924 39.8948 15.8041C44.5555 20.4648 44.5555 28.0213 39.8948 32.6821L29.2444 43.3326C27.2597 45.3172 24.7746 46.4963 22.1952 46.87C25.971 47.4169 29.9487 46.2379 32.8541 43.3326L43.5045 32.6821C48.1652 28.0214 48.1652 20.4649 43.5045 15.8041Z" fill="black" fill-opacity="0.1"/>
<path d="M26.19 18.2591L24.5831 19.8659C24.2614 20.1876 23.7397 20.1876 23.418 19.8659L21.8111 18.2591C17.9259 14.3739 11.6267 14.3739 7.74153 18.2591C3.85634 22.1442 3.85634 28.4434 7.74153 32.3286L16.6198 41.2069C20.696 45.2831 27.305 45.2831 31.3813 41.2069L40.2596 32.3286C44.1448 28.4434 44.1448 22.1442 40.2596 18.2591C36.3743 14.3739 30.0752 14.3739 26.19 18.2591Z" fill="url(#paint3_linear_59_5247)"/>
<path d="M26.19 18.2591L24.5831 19.8659C24.2614 20.1876 23.7397 20.1876 23.418 19.8659L21.8111 18.2591C17.9259 14.3739 11.6267 14.3739 7.74153 18.2591C3.85634 22.1442 3.85634 28.4434 7.74153 32.3286L16.6198 41.2069C20.696 45.2831 27.305 45.2831 31.3813 41.2069L40.2596 32.3286C44.1448 28.4434 44.1448 22.1442 40.2596 18.2591C36.3743 14.3739 30.0752 14.3739 26.19 18.2591Z" fill="url(#paint4_linear_59_5247)"/>
<path d="M26.19 18.2591L24.5831 19.8659C24.2614 20.1876 23.7397 20.1876 23.418 19.8659L21.8111 18.2591C17.9259 14.3739 11.6267 14.3739 7.74153 18.2591C3.85634 22.1442 3.85634 28.4434 7.74153 32.3286L16.6198 41.2069C20.696 45.2831 27.305 45.2831 31.3813 41.2069L40.2596 32.3286C44.1448 28.4434 44.1448 22.1442 40.2596 18.2591C36.3743 14.3739 30.0752 14.3739 26.19 18.2591Z" fill="url(#paint5_linear_59_5247)"/>
<path d="M40.2596 18.2591C37.8559 15.8553 34.5284 14.9395 31.4201 15.51C33.3359 15.8616 35.1685 16.7775 36.65 18.2591C40.5352 22.1443 40.5352 28.4435 36.65 32.3287L27.7717 41.2069C26.1945 42.7842 24.238 43.7506 22.1958 44.1073C25.4315 44.6724 28.8823 43.706 31.3814 41.2069L40.2596 32.3287C44.1448 28.4435 44.1448 22.1443 40.2596 18.2591Z" fill="url(#paint6_linear_59_5247)"/>
<path d="M40.2596 18.2591C37.8559 15.8553 34.5284 14.9395 31.4201 15.51C33.3359 15.8616 35.1685 16.7775 36.65 18.2591C40.5352 22.1443 40.5352 28.4435 36.65 32.3287L27.7717 41.2069C26.1945 42.7842 24.238 43.7506 22.1958 44.1073C25.4315 44.6724 28.8823 43.706 31.3814 41.2069L40.2596 32.3287C44.1448 28.4435 44.1448 22.1443 40.2596 18.2591Z" fill="url(#paint7_linear_59_5247)"/>
<path d="M40.2596 18.2591C37.8559 15.8553 34.5284 14.9395 31.4201 15.51C33.3359 15.8616 35.1685 16.7775 36.65 18.2591C40.5352 22.1443 40.5352 28.4435 36.65 32.3287L27.7717 41.2069C26.1945 42.7842 24.238 43.7506 22.1958 44.1073C25.4315 44.6724 28.8823 43.706 31.3814 41.2069L40.2596 32.3287C44.1448 28.4435 44.1448 22.1443 40.2596 18.2591Z" fill="url(#paint8_linear_59_5247)"/>
<path d="M29.5989 8.18439H18.4034L17.2046 4.10987C16.7476 2.55642 17.9121 1 19.5313 1H28.471C30.0902 1 31.2548 2.55642 30.7977 4.10987L29.5989 8.18439Z" fill="url(#paint9_linear_59_5247)"/>
<path d="M29.5989 8.18439H18.4034L17.2046 4.10987C16.7476 2.55642 17.9121 1 19.5313 1H28.471C30.0902 1 31.2548 2.55642 30.7977 4.10987L29.5989 8.18439Z" fill="url(#paint10_linear_59_5247)"/>
<path d="M29.5989 8.18439H18.4034L17.2046 4.10987C16.7476 2.55642 17.9121 1 19.5313 1H28.471C30.0902 1 31.2548 2.55642 30.7977 4.10987L29.5989 8.18439Z" fill="url(#paint11_linear_59_5247)"/>
<path d="M29.5989 8.18439H18.4034L17.2046 4.10987C16.7476 2.55642 17.9121 1 19.5313 1H28.471C30.0902 1 31.2548 2.55642 30.7977 4.10987L29.5989 8.18439Z" fill="url(#paint12_linear_59_5247)"/>
<path d="M28.47 1H24.8604C26.4796 1 27.6441 2.55642 27.187 4.10987L25.9883 8.18439H29.5979L30.7967 4.10987C31.2537 2.55642 30.0892 1 28.47 1V1Z" fill="url(#paint13_linear_59_5247)"/>
<path d="M28.47 1H24.8604C26.4796 1 27.6441 2.55642 27.187 4.10987L25.9883 8.18439H29.5979L30.7967 4.10987C31.2537 2.55642 30.0892 1 28.47 1V1Z" fill="url(#paint14_linear_59_5247)"/>
<path d="M28.47 1H24.8604C26.4796 1 27.6441 2.55642 27.187 4.10987L25.9883 8.18439H29.5979L30.7967 4.10987C31.2537 2.55642 30.0892 1 28.47 1V1Z" fill="url(#paint15_linear_59_5247)"/>
<path d="M28.47 1H24.8604C26.4796 1 27.6441 2.55642 27.187 4.10987L25.9883 8.18439H29.5979L30.7967 4.10987C31.2537 2.55642 30.0892 1 28.47 1V1Z" fill="url(#paint16_linear_59_5247)"/>
<path d="M32.3038 10.9056H15.6981C14.3984 10.9056 13.3447 9.85194 13.3447 8.55222C13.3447 7.25249 14.3984 6.19882 15.6981 6.19882H32.3039C33.6036 6.19882 34.6572 7.25249 34.6572 8.55222C34.6572 9.85194 33.6035 10.9056 32.3038 10.9056Z" fill="url(#paint17_linear_59_5247)"/>
<path d="M32.3038 10.9056H15.6981C14.3984 10.9056 13.3447 9.85194 13.3447 8.55222C13.3447 7.25249 14.3984 6.19882 15.6981 6.19882H32.3039C33.6036 6.19882 34.6572 7.25249 34.6572 8.55222C34.6572 9.85194 33.6035 10.9056 32.3038 10.9056Z" fill="url(#paint18_linear_59_5247)"/>
<path d="M32.3038 10.9056H15.6981C14.3984 10.9056 13.3447 9.85194 13.3447 8.55222C13.3447 7.25249 14.3984 6.19882 15.6981 6.19882H32.3039C33.6036 6.19882 34.6572 7.25249 34.6572 8.55222C34.6572 9.85194 33.6035 10.9056 32.3038 10.9056Z" fill="url(#paint19_linear_59_5247)"/>
<path d="M32.3045 6.19882H28.6948C29.9945 6.19882 31.0482 7.25249 31.0482 8.55222C31.0482 9.85194 29.9945 10.9056 28.6948 10.9056H32.3045C33.6042 10.9056 34.6579 9.85194 34.6579 8.55222C34.6579 7.25249 33.6042 6.19882 32.3045 6.19882Z" fill="url(#paint20_linear_59_5247)"/>
<path d="M32.3045 6.19882H28.6948C29.9945 6.19882 31.0482 7.25249 31.0482 8.55222C31.0482 9.85194 29.9945 10.9056 28.6948 10.9056H32.3045C33.6042 10.9056 34.6579 9.85194 34.6579 8.55222C34.6579 7.25249 33.6042 6.19882 32.3045 6.19882Z" fill="black" fill-opacity="0.1"/>
</g>
<defs>
<linearGradient id="paint0_linear_59_5247" x1="0.773044" y1="28.5279" x2="46.8902" y2="28.5279" gradientUnits="userSpaceOnUse">
<stop stop-color="#F8F6F7"/>
<stop offset="0.1788" stop-color="#F8F6F7"/>
<stop offset="1" stop-color="#E7E6F5"/>
</linearGradient>
<linearGradient id="paint1_linear_59_5247" x1="24" y1="12.668" x2="24" y2="47.1686" gradientUnits="userSpaceOnUse">
<stop stop-color="#C9CEFF"/>
<stop offset="0.5" stop-color="#C8E5FF"/>
<stop offset="1" stop-color="#C4EAFF"/>
</linearGradient>
<linearGradient id="paint2_linear_59_5247" x1="27.749" y1="12.668" x2="27.749" y2="47.1686" gradientUnits="userSpaceOnUse">
<stop stop-color="#C9CEFF"/>
<stop offset="0.5" stop-color="#C8E5FF"/>
<stop offset="1" stop-color="#C4EAFF"/>
</linearGradient>
<linearGradient id="paint3_linear_59_5247" x1="4.63852" y1="29.8046" x2="43.082" y2="29.8046" gradientUnits="userSpaceOnUse">
<stop stop-color="#FE7D43"/>
<stop offset="0.1648" stop-color="#FE7645"/>
<stop offset="0.408" stop-color="#FE624C"/>
<stop offset="0.6488" stop-color="#FD4755"/>
<stop offset="0.8234" stop-color="#F23543"/>
<stop offset="1" stop-color="#E41F2D"/>
</linearGradient>
<linearGradient id="paint4_linear_59_5247" x1="23.6144" y1="16.2177" x2="23.7373" y2="44.1583" gradientUnits="userSpaceOnUse">
<stop stop-color="#FFA978"/>
<stop offset="1" stop-color="#D87761"/>
</linearGradient>
<linearGradient id="paint5_linear_59_5247" x1="53.4995" y1="24" x2="25.4751" y2="-1.76831" gradientUnits="userSpaceOnUse">
<stop stop-color="#D33B4B"/>
<stop offset="1" stop-color="#F4495A"/>
</linearGradient>
<linearGradient id="paint6_linear_59_5247" x1="7.85552" y1="29.8047" x2="34.6144" y2="29.8047" gradientUnits="userSpaceOnUse">
<stop stop-color="#FE7D43"/>
<stop offset="0.1648" stop-color="#FE7645"/>
<stop offset="0.408" stop-color="#FE624C"/>
<stop offset="0.6488" stop-color="#FD4755"/>
<stop offset="0.8234" stop-color="#F23543"/>
<stop offset="1" stop-color="#E41F2D"/>
</linearGradient>
<linearGradient id="paint7_linear_59_5247" x1="32.4734" y1="16.2183" x2="32.698" y2="44.1566" gradientUnits="userSpaceOnUse">
<stop stop-color="#EE7937"/>
<stop offset="1" stop-color="#EB684C"/>
</linearGradient>
<linearGradient id="paint8_linear_59_5247" x1="23.8299" y1="47.7689" x2="52.9718" y2="58.6416" gradientUnits="userSpaceOnUse">
<stop stop-color="#B92B3A"/>
<stop offset="1" stop-color="#D83142"/>
</linearGradient>
<linearGradient id="paint9_linear_59_5247" x1="17.5524" y1="4.59215" x2="28.016" y2="4.59215" gradientUnits="userSpaceOnUse">
<stop stop-color="#FFDCBD"/>
<stop offset="0.0028" stop-color="#FFDCBD"/>
<stop offset="1" stop-color="#FFA9B1"/>
</linearGradient>
<linearGradient id="paint10_linear_59_5247" x1="23.8623" y1="1.21677" x2="23.8834" y2="8.15818" gradientUnits="userSpaceOnUse">
<stop stop-color="#FFA978"/>
<stop offset="1" stop-color="#D87761"/>
</linearGradient>
<linearGradient id="paint11_linear_59_5247" x1="18.179" y1="9.05523" x2="31.1252" y2="7.23396" gradientUnits="userSpaceOnUse">
<stop stop-color="#D33B4B"/>
<stop offset="1" stop-color="#F4495A"/>
</linearGradient>
<linearGradient id="paint12_linear_59_5247" x1="34.6123" y1="3.15014" x2="27.9023" y2="-5.78328" gradientUnits="userSpaceOnUse">
<stop stop-color="#D33B4B"/>
<stop offset="1" stop-color="#F4495A"/>
</linearGradient>
<linearGradient id="paint13_linear_59_5247" x1="12.5003" y1="4.59215" x2="30.3369" y2="4.59215" gradientUnits="userSpaceOnUse">
<stop stop-color="#FFC2B5"/>
<stop offset="0.2441" stop-color="#FFBBB3"/>
<stop offset="0.6097" stop-color="#FFA6AF"/>
<stop offset="1" stop-color="#FF89A8"/>
</linearGradient>
<linearGradient id="paint14_linear_59_5247" x1="27.8178" y1="1.21677" x2="27.866" y2="8.15791" gradientUnits="userSpaceOnUse">
<stop stop-color="#EE7937"/>
<stop offset="1" stop-color="#EB684C"/>
</linearGradient>
<linearGradient id="paint15_linear_59_5247" x1="25.3306" y1="9.05523" x2="31.0866" y2="8.70085" gradientUnits="userSpaceOnUse">
<stop stop-color="#B92B3A"/>
<stop offset="1" stop-color="#D83142"/>
</linearGradient>
<linearGradient id="paint16_linear_59_5247" x1="25.3306" y1="9.05523" x2="33.3804" y2="12.5339" gradientUnits="userSpaceOnUse">
<stop stop-color="#B92B3A"/>
<stop offset="1" stop-color="#D83142"/>
</linearGradient>
<linearGradient id="paint17_linear_59_5247" x1="14.717" y1="8.55222" x2="33.4042" y2="8.55222" gradientUnits="userSpaceOnUse">
<stop stop-color="#F8F6F7"/>
<stop offset="0.1788" stop-color="#F8F6F7"/>
<stop offset="1" stop-color="#E7E6F5"/>
</linearGradient>
<linearGradient id="paint18_linear_59_5247" x1="24.001" y1="6.53164" x2="24.001" y2="10.9271" gradientUnits="userSpaceOnUse">
<stop stop-color="#9BA4FF"/>
<stop offset="0.5" stop-color="#B4DCFF"/>
<stop offset="1" stop-color="#EBF8FF"/>
</linearGradient>
<linearGradient id="paint19_linear_59_5247" x1="24.001" y1="6.53164" x2="24.001" y2="10.9271" gradientUnits="userSpaceOnUse">
<stop stop-color="#C9CEFF"/>
<stop offset="0.5" stop-color="#C8E5FF"/>
<stop offset="1" stop-color="#C4EAFF"/>
</linearGradient>
<linearGradient id="paint20_linear_59_5247" x1="31.6763" y1="6.53164" x2="31.6763" y2="10.9271" gradientUnits="userSpaceOnUse">
<stop stop-color="#C9CEFF"/>
<stop offset="0.5" stop-color="#C8E5FF"/>
<stop offset="1" stop-color="#C4EAFF"/>
</linearGradient>
<clipPath id="clip0_59_5247">
<rect width="46" height="46" fill="white" transform="translate(1 1)"/>
</clipPath>
</defs>
</svg>
